<svg width="32" height="28" viewBox="0 0 32 28" fill="none" xmlns="http://www.w3.org/2000/svg">
<path fill-rule="evenodd" clip-rule="evenodd" d="M24.4565 6.66487V6.66487C23.897 6.66487 23.39 6.34237 23.1515 5.83837C22.721 4.92637 22.1735 3.76087 21.8495 3.12637C21.371 2.18287 20.5955 1.63387 19.5215 1.62637C19.5035 1.62487 12.4955 1.62487 12.4775 1.62637C11.4035 1.63387 10.6295 2.18287 10.1495 3.12637C9.82701 3.76087 9.27951 4.92637 8.84901 5.83837C8.61051 6.34237 8.10201 6.66487 7.54401 6.66487V6.66487C4.55001 6.66487 2.12451 9.09037 2.12451 12.0829V20.9869C2.12451 23.9779 4.55001 26.4049 7.54401 26.4049H24.4565C27.449 26.4049 29.8745 23.9779 29.8745 20.9869V12.0829C29.8745 9.09037 27.449 6.66487 24.4565 6.66487Z" stroke="#398B39" stroke-width="3" stroke-linecap="round" stroke-linejoin="round"/>
<path fill-rule="evenodd" clip-rule="evenodd" d="M11.2321 16.0018C11.2306 18.6313 13.3771 20.7823 16.0021 20.7808C18.6226 20.7778 20.7631 18.6358 20.7676 16.0123C20.7721 13.3783 18.6331 11.2318 16.0051 11.2288C13.3621 11.2258 11.2111 13.4083 11.2321 16.0018Z" stroke="#398B39" stroke-width="3" stroke-linecap="round" stroke-linejoin="round"/>
<path d="M23.3538 12.4926C23.2088 12.4778 23.0657 12.4399 22.9054 12.3754C22.7271 12.2962 22.5727 12.1954 22.4234 12.0438C22.1553 11.7586 22 11.3855 22 11.0007C22 10.7963 22.0418 10.5937 22.1234 10.4102C22.2052 10.2243 22.3021 10.0674 22.4773 9.89683C22.6105 9.78078 22.747 9.6874 22.9336 9.60519C23.487 9.38594 24.1452 9.51695 24.5565 9.92812C24.6798 10.0496 24.7836 10.1962 24.8412 10.3198L24.8754 10.4074C24.9582 10.5937 25 10.7963 25 11.0007C25 11.3933 24.8467 11.7564 24.5622 12.0587C24.3163 12.3062 23.9933 12.4584 23.6488 12.4926L23.5 12.5L23.3538 12.4926Z" fill="#398B39"/>
</svg>
