<svg width="21" height="16" viewBox="0 0 21 16" fill="none" xmlns="http://www.w3.org/2000/svg">
<path fill-rule="evenodd" clip-rule="evenodd" d="M0.5 4C0.5 1.79086 2.29086 0 4.5 0H10.5C12.7091 0 14.5 1.79086 14.5 4V12C14.5 14.2091 12.7091 16 10.5 16H4.5C2.29086 16 0.5 14.2091 0.5 12V4ZM11.5 5C11.5 6.10457 10.6046 7 9.5 7C8.39543 7 7.5 6.10457 7.5 5C7.5 3.89543 8.39543 3 9.5 3C10.6046 3 11.5 3.89543 11.5 5ZM17.0409 12.3103L16 11.1999V4.79993L17.0409 3.68961C18.281 2.3669 20.5 3.24442 20.5 5.05749V10.9424C20.5 12.7554 18.281 13.633 17.0409 12.3103Z" fill="#398B39"/>
</svg>
