<svg width="19" height="20" viewBox="0 0 19 20" fill="none" xmlns="http://www.w3.org/2000/svg">
<path d="M16.3248 7.46826C16.3248 7.46826 15.7818 14.2033 15.4668 17.0403C15.3168 18.3953 14.4798 19.1893 13.1088 19.2143C10.4998 19.2613 7.88779 19.2643 5.27979 19.2093C3.96079 19.1823 3.13779 18.3783 2.99079 17.0473C2.67379 14.1853 2.13379 7.46826 2.13379 7.46826" stroke="white" stroke-width="1.5" stroke-linecap="round" stroke-linejoin="round"/>
<path d="M17.708 4.23975H0.75" stroke="white" stroke-width="1.5" stroke-linecap="round" stroke-linejoin="round"/>
<path d="M14.4406 4.23973C13.6556 4.23973 12.9796 3.68473 12.8256 2.91573L12.5826 1.69973C12.4326 1.13873 11.9246 0.750732 11.3456 0.750732H7.11258C6.53358 0.750732 6.02558 1.13873 5.87558 1.69973L5.63258 2.91573C5.47858 3.68473 4.80258 4.23973 4.01758 4.23973" stroke="white" stroke-width="1.5" stroke-linecap="round" stroke-linejoin="round"/>
</svg>
