<svg width="25" height="24" viewBox="0 0 25 24" fill="none" xmlns="http://www.w3.org/2000/svg">
<path fill-rule="evenodd" clip-rule="evenodd" d="M8.50625 2.8023C8.5182 2.81028 8.53019 2.81827 8.54222 2.82629L19.091 9.85878C19.3962 10.0622 19.6792 10.2509 19.8965 10.4261C20.1234 10.6091 20.3908 10.8628 20.5447 11.2339C20.7481 11.7244 20.7481 12.2756 20.5447 12.7661C20.3908 13.1372 20.1234 13.3909 19.8965 13.5738C19.6792 13.7491 19.3962 13.9377 19.091 14.1412L8.50628 21.1977C8.13319 21.4464 7.79772 21.6701 7.51305 21.8244C7.22818 21.9788 6.83717 22.1552 6.3808 22.1279C5.79705 22.0931 5.25779 21.8045 4.90498 21.3381C4.62916 20.9735 4.55905 20.5503 4.52949 20.2276C4.49994 19.9052 4.49997 19.502 4.5 19.0536L4.5 4.98962C4.5 4.97516 4.5 4.96075 4.5 4.94638C4.49997 4.49798 4.49994 4.09479 4.52949 3.77236C4.55905 3.44971 4.62916 3.02651 4.90498 2.6619C5.25779 2.19552 5.79705 1.90692 6.3808 1.87207C6.83717 1.84482 7.22818 2.02123 7.51305 2.17561C7.79771 2.32988 8.13317 2.55355 8.50625 2.8023Z" fill="#398B39"/>
</svg>
