<svg width="36" height="36" viewBox="0 0 36 36" fill="none" xmlns="http://www.w3.org/2000/svg">
<path d="M19.2727 6H16.7273C15.3214 6 14.1818 7.07452 14.1818 8.4C14.1818 9.91682 12.5589 10.8812 11.2267 10.156L11.0913 10.0823C9.87387 9.41956 8.31709 9.81286 7.61418 10.9608L6.34144 13.0392C5.63853 14.1871 6.05567 15.6549 7.27315 16.3177C8.606 17.0432 8.606 18.9568 7.27315 19.6823C6.05567 20.3451 5.63853 21.8129 6.34144 22.9608L7.61417 25.0392C8.31708 26.1871 9.87387 26.5804 11.0913 25.9177L11.2267 25.844C12.5589 25.1188 14.1818 26.0832 14.1818 27.6C14.1818 28.9255 15.3214 30 16.7273 30H19.2727C20.6785 30 21.8182 28.9255 21.8182 27.6C21.8182 26.0832 23.4411 25.1188 24.7733 25.844L24.9086 25.9177C26.1261 26.5804 27.6829 26.1871 28.3858 25.0392L29.6585 22.9608C30.3614 21.8129 29.9443 20.345 28.7268 19.6823C27.394 18.9568 27.394 17.0432 28.7268 16.3177C29.9443 15.655 30.3614 14.1871 29.6585 13.0392L28.3858 10.9608C27.6829 9.81288 26.1261 9.41958 24.9086 10.0823L24.7733 10.156C23.4411 10.8812 21.8182 9.91682 21.8182 8.4C21.8182 7.07452 20.6785 6 19.2727 6Z" stroke="#398B39" stroke-width="3" stroke-linejoin="round"/>
<circle cx="18" cy="18" r="4.5" stroke="#398B39" stroke-width="3"/>
</svg>
