<svg width="20" height="20" viewBox="0 0 20 20" fill="none" xmlns="http://www.w3.org/2000/svg">
<path d="M15.0001 8.55623C15.4982 8.84441 15.8334 9.38303 15.8334 9.99993C15.8334 10.6168 15.4982 11.1555 15.0001 11.4436M15.0001 5.91659C16.9019 6.30265 18.3334 7.98411 18.3334 9.99991C18.3334 12.0157 16.9019 13.6972 15.0001 14.0832M6.27777 6.33498L9.83341 3.66946C10.9321 2.84579 12.5001 3.6294 12.5001 5.00219V14.9976C12.5001 16.3704 10.9321 17.154 9.83341 16.3304L6.27777 13.6649C5.98933 13.4486 5.63855 13.3317 5.27806 13.3317H3.33341C2.41294 13.3317 1.66675 12.5859 1.66675 11.6658V8.33401C1.66675 7.41395 2.41294 6.6681 3.33341 6.6681H5.27806C5.63855 6.6681 5.98933 6.55121 6.27777 6.33498Z" stroke="#398B39" stroke-width="1.5" stroke-linecap="round"/>
</svg>
