<svg width="12" height="16" viewBox="0 0 16 20" fill="none" xmlns="http://www.w3.org/2000/svg">
<path d="M14.25 11.875V9.6875C14.25 8.94158 13.9537 8.22621 13.4262 7.69876C12.8988 7.17132 12.1834 6.875 11.4375 6.875H10.1875C9.93886 6.875 9.7004 6.77623 9.52459 6.60041C9.34877 6.4246 9.25 6.18614 9.25 5.9375V4.6875C9.25 3.94158 8.95368 3.22621 8.42624 2.69876C7.89879 2.17132 7.18342 1.875 6.4375 1.875H4.875M4.875 12.5H11.125M4.875 15H8M6.75 1.875H2.6875C2.17 1.875 1.75 2.295 1.75 2.8125V17.1875C1.75 17.705 2.17 18.125 2.6875 18.125H13.3125C13.83 18.125 14.25 17.705 14.25 17.1875V9.375C14.25 7.38588 13.4598 5.47822 12.0533 4.0717C10.6468 2.66518 8.73912 1.875 6.75 1.875Z" stroke="#398B39" stroke-width="2" stroke-linecap="round" stroke-linejoin="round"/>
</svg>
