<svg width="203" height="50" viewBox="0 0 203 50" fill="none" xmlns="http://www.w3.org/2000/svg">
<path d="M129.688 21.8961C128.584 21.8961 127.592 21.6241 126.712 21.0801C125.848 20.5361 125.168 19.7841 124.672 18.8241C124.176 17.8641 123.928 16.7841 123.928 15.5841C123.928 14.3521 124.176 13.2641 124.672 12.3201C125.184 11.3601 125.88 10.6081 126.76 10.0641C127.656 9.50413 128.656 9.22412 129.76 9.22412C130.624 9.22412 131.384 9.38413 132.04 9.70413C132.696 10.0241 133.224 10.4801 133.624 11.0721V4.32812H136.864V21.6081H133.984L133.624 19.9521C133.384 20.2881 133.08 20.6081 132.712 20.9121C132.36 21.2161 131.936 21.4561 131.44 21.6321C130.944 21.8081 130.36 21.8961 129.688 21.8961ZM130.456 19.0641C131.096 19.0641 131.656 18.9201 132.136 18.6321C132.632 18.3281 133.016 17.9121 133.288 17.3841C133.56 16.8561 133.696 16.2481 133.696 15.5601C133.696 14.8721 133.56 14.2641 133.288 13.7361C133.016 13.2081 132.632 12.8001 132.136 12.5121C131.656 12.2081 131.096 12.0561 130.456 12.0561C129.848 12.0561 129.296 12.2081 128.8 12.5121C128.304 12.8001 127.912 13.2081 127.624 13.7361C127.352 14.2641 127.216 14.8641 127.216 15.5361C127.216 16.2401 127.352 16.8561 127.624 17.3841C127.912 17.9121 128.296 18.3281 128.776 18.6321C129.272 18.9201 129.832 19.0641 130.456 19.0641Z" fill="#131632"/>
<path d="M117.122 21.8961C115.906 21.8961 114.826 21.6401 113.882 21.1281C112.954 20.6001 112.226 19.8721 111.698 18.9441C111.186 18.0001 110.93 16.9121 110.93 15.6801C110.93 14.4161 111.186 13.3041 111.698 12.3441C112.226 11.3681 112.954 10.6081 113.882 10.0641C114.81 9.50412 115.89 9.22412 117.122 9.22412C118.322 9.22412 119.37 9.48812 120.266 10.0161C121.162 10.5441 121.858 11.2561 122.354 12.1521C122.85 13.0481 123.098 14.0641 123.098 15.2001C123.098 15.3601 123.098 15.5441 123.098 15.7521C123.098 15.9441 123.082 16.1441 123.05 16.3521H113.234V14.3841H119.834C119.786 13.6001 119.506 12.9841 118.994 12.5361C118.498 12.0881 117.874 11.8641 117.122 11.8641C116.578 11.8641 116.074 11.9921 115.61 12.2481C115.146 12.4881 114.778 12.8641 114.506 13.3761C114.25 13.8881 114.122 14.5361 114.122 15.3201V16.0161C114.122 16.6721 114.242 17.2481 114.482 17.7441C114.738 18.2241 115.09 18.6001 115.538 18.8721C115.986 19.1281 116.506 19.2561 117.098 19.2561C117.69 19.2561 118.178 19.1281 118.562 18.8721C118.962 18.6161 119.258 18.2881 119.45 17.8881H122.762C122.538 18.6401 122.162 19.3201 121.634 19.9281C121.106 20.5361 120.458 21.0161 119.69 21.3681C118.922 21.7201 118.066 21.8961 117.122 21.8961Z" fill="#131632"/>
<path d="M108.124 21.6081C107.276 21.6081 106.532 21.4801 105.892 21.2241C105.268 20.9521 104.78 20.5121 104.428 19.9041C104.076 19.2801 103.9 18.4321 103.9 17.3601V12.2241H101.836V9.51212H103.9L104.26 6.22412H107.14V9.51212H110.332V12.2241H107.14V17.4081C107.14 17.9521 107.26 18.3281 107.5 18.5361C107.74 18.7441 108.148 18.8481 108.724 18.8481H110.308V21.6081H108.124Z" fill="#131632"/>
<path d="M89.3027 21.6081V9.51212H92.1587L92.3987 11.4801C92.7667 10.8081 93.2867 10.2641 93.9587 9.84812C94.6467 9.43212 95.4627 9.22412 96.4067 9.22412C97.4147 9.22412 98.2627 9.43212 98.9507 9.84812C99.6387 10.2641 100.159 10.8721 100.511 11.6721C100.879 12.4721 101.063 13.4561 101.063 14.6241V21.6081H97.8467V14.9361C97.8467 13.9761 97.6387 13.2401 97.2227 12.7281C96.8227 12.2161 96.1987 11.9601 95.3507 11.9601C94.8067 11.9601 94.3187 12.0881 93.8867 12.3441C93.4707 12.6001 93.1427 12.9681 92.9027 13.4481C92.6627 13.9121 92.5427 14.4801 92.5427 15.1521V21.6081H89.3027Z" fill="#131632"/>
<path d="M82.1139 21.8961C80.8979 21.8961 79.8179 21.6401 78.8739 21.1281C77.9459 20.6001 77.2179 19.8721 76.6899 18.9441C76.1779 18.0001 75.9219 16.9121 75.9219 15.6801C75.9219 14.4161 76.1779 13.3041 76.6899 12.3441C77.2179 11.3681 77.9459 10.6081 78.8739 10.0641C79.8019 9.50412 80.8819 9.22412 82.1139 9.22412C83.3139 9.22412 84.3619 9.48812 85.2579 10.0161C86.1539 10.5441 86.8499 11.2561 87.3459 12.1521C87.8419 13.0481 88.0899 14.0641 88.0899 15.2001C88.0899 15.3601 88.0899 15.5441 88.0899 15.7521C88.0899 15.9441 88.0739 16.1441 88.0419 16.3521H78.2259V14.3841H84.8259C84.7779 13.6001 84.4979 12.9841 83.9859 12.5361C83.4899 12.0881 82.8659 11.8641 82.1139 11.8641C81.5699 11.8641 81.0659 11.9921 80.6019 12.2481C80.1379 12.4881 79.7699 12.8641 79.4979 13.3761C79.2419 13.8881 79.1139 14.5361 79.1139 15.3201V16.0161C79.1139 16.6721 79.2339 17.2481 79.4739 17.7441C79.7299 18.2241 80.0819 18.6001 80.5299 18.8721C80.9779 19.1281 81.4979 19.2561 82.0899 19.2561C82.6819 19.2561 83.1699 19.1281 83.5539 18.8721C83.9539 18.6161 84.2499 18.2881 84.4419 17.8881H87.7539C87.5299 18.6401 87.1539 19.3201 86.6259 19.9281C86.0979 20.5361 85.4499 21.0161 84.6819 21.3681C83.9139 21.7201 83.0579 21.8961 82.1139 21.8961Z" fill="#131632"/>
<path d="M55.1523 21.6081V9.51212H58.0083L58.2723 11.1201C58.6563 10.5441 59.1603 10.0881 59.7843 9.75212C60.4243 9.40012 61.1523 9.22412 61.9683 9.22412C62.5763 9.22412 63.1203 9.30412 63.6003 9.46412C64.0803 9.62412 64.5043 9.85612 64.8723 10.1601C65.2563 10.4641 65.5683 10.8481 65.8083 11.3121C66.2563 10.6561 66.8403 10.1441 67.5603 9.77612C68.2803 9.40812 69.0643 9.22412 69.9123 9.22412C70.9683 9.22412 71.8483 9.44012 72.5523 9.87212C73.2563 10.2881 73.7843 10.8961 74.1363 11.6961C74.5043 12.4961 74.6883 13.4801 74.6883 14.6481V21.6081H71.4723V14.9361C71.4723 13.9761 71.2803 13.2401 70.8963 12.7281C70.5283 12.2161 69.9523 11.9601 69.1683 11.9601C68.6563 11.9601 68.2003 12.0881 67.8003 12.3441C67.4003 12.6001 67.0883 12.9681 66.8643 13.4481C66.6563 13.9281 66.5523 14.5041 66.5523 15.1761V21.6081H63.3123V14.9361C63.3123 13.9761 63.1203 13.2401 62.7363 12.7281C62.3523 12.2161 61.7603 11.9601 60.9603 11.9601C60.4643 11.9601 60.0163 12.0881 59.6163 12.3441C59.2323 12.6001 58.9283 12.9681 58.7043 13.4481C58.4963 13.9281 58.3923 14.5041 58.3923 15.1761V21.6081H55.1523Z" fill="#131632"/>
<path d="M46.3162 21.8962C45.3402 21.8962 44.5002 21.6962 43.7962 21.2962C43.1082 20.8802 42.5802 20.2802 42.2122 19.4962C41.8442 18.6962 41.6602 17.7122 41.6602 16.5442V9.51221H44.9002V16.2082C44.9002 17.1842 45.1002 17.9202 45.5002 18.4162C45.9162 18.9122 46.5482 19.1602 47.3962 19.1602C47.9402 19.1602 48.4202 19.0402 48.8362 18.8002C49.2522 18.5442 49.5802 18.1842 49.8202 17.7202C50.0762 17.2402 50.2042 16.6562 50.2042 15.9682V9.51221H53.4202V21.6082H50.5882L50.3242 19.6402C49.9722 20.3282 49.4522 20.8802 48.7642 21.2962C48.0762 21.6962 47.2602 21.8962 46.3162 21.8962Z" fill="#131632"/>
<path d="M34.5212 21.8961C33.3052 21.8961 32.2253 21.6241 31.2812 21.0801C30.3372 20.5361 29.6012 19.7921 29.0732 18.8481C28.5452 17.9041 28.2812 16.8241 28.2812 15.6081C28.2812 14.3601 28.5452 13.2641 29.0732 12.3201C29.6012 11.3601 30.3372 10.6081 31.2812 10.0641C32.2253 9.50412 33.3052 9.22412 34.5212 9.22412C36.0732 9.22412 37.3773 9.63212 38.4333 10.4481C39.4893 11.2641 40.1612 12.3841 40.4492 13.8081H37.0173C36.8733 13.2481 36.5693 12.8081 36.1053 12.4881C35.6573 12.1681 35.1212 12.0081 34.4972 12.0081C33.9372 12.0081 33.4332 12.1521 32.9852 12.4401C32.5532 12.7121 32.2093 13.1201 31.9533 13.6641C31.7133 14.1921 31.5933 14.8241 31.5933 15.5601C31.5933 16.1201 31.6652 16.6241 31.8092 17.0721C31.9532 17.5041 32.1532 17.8801 32.4092 18.2001C32.6652 18.5041 32.9693 18.7361 33.3213 18.8961C33.6893 19.0561 34.0812 19.1361 34.4972 19.1361C34.9132 19.1361 35.2892 19.0641 35.6252 18.9201C35.9772 18.7761 36.2732 18.5761 36.5132 18.3201C36.7532 18.0481 36.9212 17.7201 37.0173 17.3361H40.4492C40.1612 18.7281 39.4812 19.8401 38.4092 20.6721C37.3532 21.4881 36.0572 21.8961 34.5212 21.8961Z" fill="#131632"/>
<path d="M21.1683 21.8961C20.0163 21.8961 18.9763 21.6321 18.0483 21.1041C17.1363 20.5601 16.4083 19.8161 15.8643 18.8721C15.3363 17.9121 15.0723 16.8161 15.0723 15.5841C15.0723 14.3201 15.3363 13.2161 15.8643 12.2721C16.4083 11.3121 17.1443 10.5681 18.0723 10.0401C19.0003 9.49612 20.0403 9.22412 21.1923 9.22412C22.3603 9.22412 23.4003 9.49612 24.3123 10.0401C25.2403 10.5681 25.9683 11.3121 26.4963 12.2721C27.0403 13.2161 27.3123 14.3121 27.3123 15.5601C27.3123 16.8081 27.0403 17.9121 26.4963 18.8721C25.9683 19.8161 25.2403 20.5601 24.3123 21.1041C23.3843 21.6321 22.3363 21.8961 21.1683 21.8961ZM21.1683 19.0881C21.7123 19.0881 22.1923 18.9601 22.6083 18.7041C23.0403 18.4481 23.3763 18.0561 23.6163 17.5281C23.8723 17.0001 24.0003 16.3441 24.0003 15.5601C24.0003 14.7761 23.8723 14.1281 23.6163 13.6161C23.3763 13.0881 23.0403 12.6961 22.6083 12.4401C22.1923 12.1681 21.7203 12.0321 21.1923 12.0321C20.6803 12.0321 20.2083 12.1681 19.7763 12.4401C19.3443 12.6961 19.0003 13.0881 18.7443 13.6161C18.5043 14.1281 18.3843 14.7761 18.3843 15.5601C18.3843 16.3441 18.5043 17.0001 18.7443 17.5281C19.0003 18.0561 19.3363 18.4481 19.7523 18.7041C20.1843 18.9601 20.6563 19.0881 21.1683 19.0881Z" fill="#131632"/>
<path d="M0 21.6081V4.80811H5.616C7.568 4.80811 9.176 5.16011 10.44 5.86411C11.72 6.55211 12.664 7.52811 13.272 8.79211C13.896 10.0401 14.208 11.5121 14.208 13.2081C14.208 14.9041 13.896 16.3841 13.272 17.6481C12.664 18.8961 11.728 19.8721 10.464 20.5761C9.2 21.2641 7.584 21.6081 5.616 21.6081H0ZM3.24 18.8241H5.448C6.824 18.8241 7.904 18.6001 8.688 18.1521C9.488 17.7041 10.056 17.0641 10.392 16.2321C10.728 15.3841 10.896 14.3761 10.896 13.2081C10.896 12.0241 10.728 11.0161 10.392 10.1841C10.056 9.33611 9.488 8.68811 8.688 8.24011C7.904 7.79211 6.824 7.56811 5.448 7.56811H3.24V18.8241Z" fill="#131632"/>
<path d="M124.771 45.672C123.763 45.672 122.931 45.512 122.275 45.192C121.619 44.856 121.131 44.416 120.811 43.872C120.507 43.312 120.355 42.696 120.355 42.024C120.355 41.288 120.539 40.64 120.907 40.08C121.291 39.52 121.859 39.08 122.611 38.76C123.379 38.44 124.339 38.28 125.491 38.28H128.491C128.491 37.688 128.411 37.2 128.251 36.816C128.091 36.416 127.843 36.12 127.507 35.928C127.171 35.736 126.723 35.64 126.163 35.64C125.555 35.64 125.035 35.776 124.603 36.048C124.187 36.304 123.931 36.704 123.835 37.248H120.691C120.771 36.384 121.051 35.64 121.531 35.016C122.027 34.376 122.675 33.88 123.475 33.528C124.291 33.176 125.195 33 126.187 33C127.323 33 128.307 33.192 129.139 33.576C129.971 33.96 130.611 34.512 131.059 35.232C131.507 35.952 131.731 36.84 131.731 37.896V45.384H128.995L128.635 43.536C128.459 43.856 128.251 44.144 128.011 44.4C127.771 44.656 127.491 44.88 127.171 45.072C126.851 45.264 126.491 45.408 126.091 45.504C125.691 45.616 125.251 45.672 124.771 45.672ZM125.539 43.176C125.955 43.176 126.323 43.104 126.643 42.96C126.979 42.8 127.267 42.592 127.507 42.336C127.747 42.064 127.931 41.76 128.059 41.424C128.203 41.072 128.299 40.696 128.347 40.296V40.272H125.875C125.379 40.272 124.971 40.336 124.651 40.464C124.347 40.576 124.123 40.744 123.979 40.968C123.835 41.192 123.763 41.448 123.763 41.736C123.763 42.056 123.835 42.32 123.979 42.528C124.123 42.736 124.331 42.896 124.603 43.008C124.875 43.12 125.187 43.176 125.539 43.176Z" fill="#131632"/>
<path d="M133.215 45.4V33.304H136.455V45.4H133.215ZM134.847 31.648C134.271 31.648 133.791 31.48 133.407 31.144C133.039 30.792 132.855 30.352 132.855 29.824C132.855 29.296 133.039 28.864 133.407 28.528C133.791 28.176 134.271 28 134.847 28C135.439 28 135.919 28.176 136.287 28.528C136.671 28.864 136.863 29.296 136.863 29.824C136.863 30.352 136.671 30.792 136.287 31.144C135.919 31.48 135.439 31.648 134.847 31.648Z" fill="#131632"/>
<path d="M117.348 45.6236C116.772 45.6236 116.292 45.4556 115.908 45.1196C115.54 44.7676 115.356 44.3276 115.356 43.7996C115.356 43.2716 115.54 42.8396 115.908 42.5036C116.292 42.1516 116.772 41.9756 117.348 41.9756C117.94 41.9756 118.42 42.1516 118.788 42.5036C119.172 42.8396 119.364 43.2716 119.364 43.7996C119.364 44.3276 119.172 44.7676 118.788 45.1196C118.42 45.4556 117.94 45.6236 117.348 45.6236Z" fill="#131632"/>
<path d="M108.287 45.5841C107.183 45.5841 106.223 45.4081 105.407 45.0561C104.591 44.7041 103.951 44.2161 103.487 43.5921C103.023 42.9681 102.759 42.2641 102.695 41.4801H105.911C105.991 41.7841 106.127 42.0641 106.319 42.3201C106.511 42.5601 106.767 42.7521 107.087 42.8961C107.407 43.0401 107.791 43.1121 108.239 43.1121C108.671 43.1121 109.023 43.0561 109.295 42.9441C109.567 42.8161 109.767 42.6481 109.895 42.4401C110.039 42.2321 110.111 42.0161 110.111 41.7921C110.111 41.4561 110.015 41.2001 109.823 41.0241C109.631 40.8321 109.351 40.6801 108.983 40.5681C108.615 40.4561 108.167 40.3441 107.639 40.2321C107.063 40.1201 106.495 39.9841 105.935 39.8241C105.391 39.6481 104.903 39.4321 104.471 39.1761C104.039 38.9201 103.695 38.5921 103.439 38.1921C103.183 37.7921 103.055 37.2961 103.055 36.7041C103.055 35.9841 103.247 35.3441 103.631 34.7841C104.015 34.2081 104.575 33.7521 105.311 33.4161C106.047 33.0801 106.935 32.9121 107.975 32.9121C109.431 32.9121 110.583 33.2401 111.431 33.8961C112.279 34.5521 112.783 35.4561 112.943 36.6081H109.895C109.799 36.2401 109.583 35.9521 109.247 35.7441C108.927 35.5201 108.495 35.4081 107.951 35.4081C107.375 35.4081 106.935 35.5121 106.631 35.7201C106.327 35.9281 106.175 36.2001 106.175 36.5361C106.175 36.7601 106.271 36.9601 106.463 37.1361C106.671 37.3121 106.959 37.4641 107.327 37.5921C107.695 37.7041 108.143 37.8161 108.671 37.9281C109.599 38.1201 110.415 38.3441 111.119 38.6001C111.823 38.8401 112.375 39.1921 112.775 39.6561C113.175 40.1041 113.375 40.7601 113.375 41.6241C113.375 42.3921 113.167 43.0801 112.751 43.6881C112.335 44.2801 111.743 44.7441 110.975 45.0801C110.223 45.4161 109.327 45.5841 108.287 45.5841Z" fill="#131632"/>
<path d="M96.1549 45.5841C94.9389 45.5841 93.8589 45.3281 92.9149 44.8161C91.9869 44.2881 91.2589 43.5601 90.7309 42.6321C90.2189 41.6881 89.9629 40.6001 89.9629 39.3681C89.9629 38.1041 90.2189 36.9921 90.7309 36.0321C91.2589 35.0561 91.9869 34.2961 92.9149 33.7521C93.8429 33.1921 94.9229 32.9121 96.1549 32.9121C97.3549 32.9121 98.4029 33.1761 99.2989 33.7041C100.195 34.2321 100.891 34.9441 101.387 35.8401C101.883 36.7361 102.131 37.7521 102.131 38.8881C102.131 39.0481 102.131 39.2321 102.131 39.4401C102.131 39.6321 102.115 39.8321 102.083 40.0401H92.2669V38.0721H98.8669C98.8189 37.2881 98.5389 36.6721 98.0269 36.2241C97.5309 35.7761 96.9069 35.5521 96.1549 35.5521C95.6109 35.5521 95.1069 35.6801 94.6429 35.9361C94.1789 36.1761 93.8109 36.5521 93.5389 37.0641C93.2829 37.5761 93.1549 38.2241 93.1549 39.0081V39.7041C93.1549 40.3601 93.2749 40.9361 93.5149 41.4321C93.7709 41.9121 94.1229 42.2881 94.5709 42.5601C95.0189 42.8161 95.5389 42.9441 96.1309 42.9441C96.7229 42.9441 97.2109 42.8161 97.5949 42.5601C97.9949 42.3041 98.2909 41.9761 98.4829 41.5761H101.795C101.571 42.3281 101.195 43.0081 100.667 43.6161C100.139 44.2241 99.4909 44.7041 98.7229 45.0561C97.9549 45.4081 97.0989 45.5841 96.1549 45.5841Z" fill="#131632"/>
<path d="M85.3887 45.2961V28.0161H88.6287V45.2961H85.3887Z" fill="#131632"/>
<path d="M78.1052 45.5841C76.8892 45.5841 75.8092 45.3121 74.8652 44.7681C73.9212 44.2241 73.1852 43.4801 72.6572 42.5361C72.1292 41.5921 71.8652 40.5121 71.8652 39.2961C71.8652 38.0481 72.1292 36.9521 72.6572 36.0081C73.1852 35.0481 73.9212 34.2961 74.8652 33.7521C75.8092 33.1921 76.8892 32.9121 78.1052 32.9121C79.6572 32.9121 80.9612 33.3201 82.0172 34.1361C83.0732 34.9521 83.7452 36.0721 84.0332 37.4961H80.6012C80.4572 36.9361 80.1532 36.4961 79.6892 36.1761C79.2412 35.8561 78.7052 35.6961 78.0812 35.6961C77.5212 35.6961 77.0172 35.8401 76.5692 36.1281C76.1372 36.4001 75.7932 36.8081 75.5372 37.3521C75.2972 37.8801 75.1772 38.5121 75.1772 39.2481C75.1772 39.8081 75.2492 40.3121 75.3932 40.7601C75.5372 41.1921 75.7372 41.5681 75.9932 41.8881C76.2492 42.1921 76.5532 42.4241 76.9052 42.5841C77.2732 42.7441 77.6652 42.8241 78.0812 42.8241C78.4972 42.8241 78.8732 42.7521 79.2092 42.6081C79.5612 42.4641 79.8572 42.2641 80.0972 42.0081C80.3372 41.7361 80.5052 41.4081 80.6012 41.0241H84.0332C83.7452 42.4161 83.0652 43.5281 81.9932 44.3601C80.9372 45.1761 79.6412 45.5841 78.1052 45.5841Z" fill="#131632"/>
<path d="M63.707 45.5841C62.699 45.5841 61.867 45.4241 61.211 45.1041C60.555 44.7681 60.067 44.3281 59.747 43.7841C59.443 43.2241 59.291 42.6081 59.291 41.9361C59.291 41.2001 59.475 40.5521 59.843 39.9921C60.227 39.4321 60.795 38.9921 61.547 38.6721C62.315 38.3521 63.275 38.1921 64.427 38.1921H67.427C67.427 37.6001 67.347 37.1121 67.187 36.7281C67.027 36.3281 66.779 36.0321 66.443 35.8401C66.107 35.6481 65.659 35.5521 65.099 35.5521C64.491 35.5521 63.971 35.6881 63.539 35.9601C63.123 36.2161 62.867 36.6161 62.771 37.1601H59.627C59.707 36.2961 59.987 35.5521 60.467 34.9281C60.963 34.2881 61.611 33.7921 62.411 33.4401C63.227 33.0881 64.131 32.9121 65.123 32.9121C66.259 32.9121 67.243 33.1041 68.075 33.4881C68.907 33.8721 69.547 34.4241 69.995 35.1441C70.443 35.8641 70.667 36.7521 70.667 37.8081V45.2961H67.931L67.571 43.4481C67.395 43.7681 67.187 44.0561 66.947 44.3121C66.707 44.5681 66.427 44.7921 66.107 44.9841C65.787 45.1761 65.427 45.3201 65.027 45.4161C64.627 45.5281 64.187 45.5841 63.707 45.5841ZM64.475 43.0881C64.891 43.0881 65.259 43.0161 65.579 42.8721C65.915 42.7121 66.203 42.5041 66.443 42.2481C66.683 41.9761 66.867 41.6721 66.995 41.3361C67.139 40.9841 67.235 40.6081 67.283 40.2081V40.1841H64.811C64.315 40.1841 63.907 40.2481 63.587 40.3761C63.283 40.4881 63.059 40.6561 62.915 40.8801C62.771 41.1041 62.699 41.3601 62.699 41.6481C62.699 41.9681 62.771 42.2321 62.915 42.4401C63.059 42.6481 63.267 42.8081 63.539 42.9201C63.811 43.0321 64.123 43.0881 64.475 43.0881Z" fill="#131632"/>
<path d="M51.248 45.2961V33.2001H54.128L54.44 35.4321C54.728 34.9041 55.088 34.4561 55.52 34.0881C55.968 33.7201 56.472 33.4321 57.032 33.2241C57.608 33.0161 58.24 32.9121 58.928 32.9121V36.3441H57.824C57.344 36.3441 56.896 36.4001 56.48 36.5121C56.08 36.6241 55.728 36.8081 55.424 37.0641C55.12 37.3041 54.888 37.6401 54.728 38.0721C54.568 38.5041 54.488 39.0481 54.488 39.7041V45.2961H51.248Z" fill="#131632"/>
<path d="M46.1725 45.2962V33.2002H49.4125V45.2962H46.1725ZM47.8045 31.5442C47.2285 31.5442 46.7485 31.3762 46.3645 31.0402C45.9965 30.6882 45.8125 30.2482 45.8125 29.7202C45.8125 29.1922 45.9965 28.7602 46.3645 28.4242C46.7485 28.0722 47.2285 27.8962 47.8045 27.8962C48.3965 27.8962 48.8765 28.0722 49.2445 28.4242C49.6285 28.7602 49.8205 29.1922 49.8205 29.7202C49.8205 30.2482 49.6285 30.6882 49.2445 31.0402C48.8765 31.3762 48.3965 31.5442 47.8045 31.5442Z" fill="#131632"/>
<path d="M26.3555 45.2963V28.4963H30.2195L35.3555 38.9843L40.4435 28.4963H44.3075V45.2963H41.0675V34.0163L36.6275 42.9443H34.0595L29.5955 34.0163V45.2963H26.3555Z" fill="#131632"/>
<circle cx="177.865" cy="25" r="23" fill="#131632" stroke="#DAFF98" stroke-width="4"/>
<rect x="171.865" y="8" width="12" height="34" fill="#DAFF98"/>
<rect x="194.865" y="19" width="12" height="34" transform="rotate(90 194.865 19)" fill="#DAFF98"/>
</svg>
