<svg width="11" height="12" viewBox="0 0 11 12" fill="none" xmlns="http://www.w3.org/2000/svg">
<path fill-rule="evenodd" clip-rule="evenodd" d="M9.25 11C9.25 11.4142 9.58579 11.75 10 11.75C10.4142 11.75 10.75 11.4142 10.75 11L10.75 1C10.75 0.585786 10.4142 0.25 10 0.25C9.58579 0.25 9.25 0.585786 9.25 1L9.25 4.41372C9.18371 4.36326 9.11321 4.31604 9.03848 4.27244L3.00774 0.754516C1.67443 -0.0232504 9.45172e-07 0.938491 8.10228e-07 2.48207L5.02681e-07 6L1.95134e-07 9.51793C6.019e-08 11.0615 1.67443 12.0233 3.00774 11.2455L9.03847 7.72756C9.1132 7.68397 9.18371 7.63674 9.25 7.58628L9.25 11Z" fill="white"/>
</svg>
