<svg width="20" height="20" viewBox="0 0 20 20" fill="none" xmlns="http://www.w3.org/2000/svg">
<path d="M2.08203 17.9166L6.70642 16.138C7.00221 16.0242 7.1501 15.9673 7.28846 15.8931C7.41137 15.8271 7.52853 15.751 7.63873 15.6654C7.7628 15.5692 7.87484 15.4571 8.09893 15.233L17.4987 5.83326C18.4192 4.91279 18.4192 3.4204 17.4987 2.49993C16.5782 1.57945 15.0859 1.57945 14.1654 2.49992L4.7656 11.8997C4.54151 12.1238 4.42947 12.2358 4.33319 12.3599C4.24768 12.4701 4.17153 12.5873 4.10556 12.7102C4.03129 12.8485 3.97441 12.9964 3.86064 13.2922L2.08203 17.9166ZM2.08203 17.9166L3.79713 13.4574C3.91986 13.1383 3.98123 12.9787 4.08648 12.9057C4.17846 12.8418 4.29228 12.8176 4.40228 12.8386C4.52814 12.8627 4.64902 12.9836 4.89077 13.2253L6.77334 15.1079C7.01509 15.3496 7.13597 15.4705 7.16 15.5964C7.18101 15.7064 7.15685 15.8202 7.09299 15.9122C7.0199 16.0174 6.86035 16.0788 6.54126 16.2015L2.08203 17.9166Z" stroke="#398B39" stroke-width="1.5" stroke-linecap="round" stroke-linejoin="round"/>
</svg>
