<svg width="11" height="12" viewBox="0 0 11 12" fill="none" xmlns="http://www.w3.org/2000/svg">
<path fill-rule="evenodd" clip-rule="evenodd" d="M0.25 11C0.25 11.4142 0.585787 11.75 1 11.75C1.41421 11.75 1.75 11.4142 1.75 11L1.75 7.58628C1.81629 7.63674 1.8868 7.68396 1.96153 7.72756L7.99226 11.2455C9.32557 12.0233 11 11.0615 11 9.51793L11 6L11 2.48207C11 0.938492 9.32557 -0.0232498 7.99226 0.754516L1.96153 4.27244C1.8868 4.31603 1.81629 4.36326 1.75 4.41372L1.75 0.999999C1.75 0.585785 1.41421 0.249999 1 0.249999C0.585788 0.249999 0.250001 0.585785 0.250001 0.999999L0.25 11Z" fill="white"/>
</svg>
