<svg width="56" height="56" viewBox="0 0 56 56" fill="none" xmlns="http://www.w3.org/2000/svg">
<g clip-path="url(#clip0_2364_131)">
<rect width="56" height="56" rx="4" fill="#1F2933" fill-opacity="0.12"/>
<path fill-rule="evenodd" clip-rule="evenodd" d="M28 38.5C33.799 38.5 38.5 33.799 38.5 28C38.5 22.201 33.799 17.5 28 17.5C22.201 17.5 17.5 22.201 17.5 28C17.5 33.1752 21.2441 37.4759 26.1712 38.3413V31.2112H23.5V28.2476H26.1712V25.9888C26.1712 23.4197 27.7411 22 30.1452 22C31.2959 22 32.5 22.2002 32.5 22.2002V24.7233H31.1726C29.8657 24.7233 29.4589 25.5143 29.4589 26.3252V28.2476H32.3767L31.9103 31.2112H29.4589V38.3759C28.9525 38.4534 28.4351 38.4952 27.9084 38.4996C27.9389 38.4999 27.9694 38.5 28 38.5Z" fill="#1F2933"/>
</g>
<defs>
<clipPath id="clip0_2364_131">
<rect width="56" height="56" rx="28" fill="white"/>
</clipPath>
</defs>
</svg>
