<svg width="56" height="56" viewBox="0 0 56 56" fill="none" xmlns="http://www.w3.org/2000/svg">
<g clip-path="url(#clip0_2364_137)">
<rect width="56" height="56" rx="4" fill="#1F2933" fill-opacity="0.12"/>
<path d="M28 31C29.6569 31 31 29.6569 31 28C31 26.3431 29.6569 25 28 25C26.3431 25 25 26.3431 25 28C25 29.6569 26.3431 31 28 31Z" fill="#1F2933"/>
<path fill-rule="evenodd" clip-rule="evenodd" d="M23 18C20.2386 18 18 20.2386 18 23V33C18 35.7614 20.2386 38 23 38H33C35.7614 38 38 35.7614 38 33V23C38 20.2386 35.7614 18 33 18H23ZM28 33C30.7614 33 33 30.7614 33 28C33 25.2386 30.7614 23 28 23C25.2386 23 23 25.2386 23 28C23 30.7614 25.2386 33 28 33ZM35 22C35 22.5523 34.5523 23 34 23C33.4477 23 33 22.5523 33 22C33 21.4477 33.4477 21 34 21C34.5523 21 35 21.4477 35 22Z" fill="#1F2933"/>
</g>
<defs>
<clipPath id="clip0_2364_137">
<rect width="56" height="56" rx="28" fill="white"/>
</clipPath>
</defs>
</svg>
