<svg width="477" height="14" viewBox="0 0 477 14" fill="none" xmlns="http://www.w3.org/2000/svg">
<path d="M39.1124 0.00111992C38.8704 0.00111992 38.6383 0.0379951 38.4672 0.103633C38.2961 0.169271 38.1999 0.258294 38.1999 0.35112V12.726C38.1999 12.8188 38.2961 12.9078 38.4672 12.9735C38.6383 13.0391 38.8704 13.076 39.1124 13.076C39.3544 13.076 39.5865 13.0391 39.7576 12.9735C39.9288 12.9078 40.0249 12.8188 40.0249 12.726V0.35C40.0241 0.257368 39.9277 0.168632 39.7566 0.103237C39.5856 0.0378408 39.3539 0.00111944 39.1124 0.00111992ZM34.4156 2.76696V10.0733C34.4156 10.1661 34.5117 10.2551 34.6829 10.3208C34.854 10.3864 35.0861 10.4233 35.3281 10.4233C35.5701 10.4233 35.8022 10.3864 35.9733 10.3208C36.1445 10.2551 36.2406 10.1661 36.2406 10.0733V2.76696C36.2406 2.67413 36.1445 2.58511 35.9733 2.51947C35.8022 2.45384 35.5701 2.41696 35.3281 2.41696C35.0861 2.41696 34.854 2.45384 34.6829 2.51947C34.5117 2.58511 34.4156 2.67413 34.4156 2.76696ZM30.6327 3.92V9.366C30.6327 9.45882 30.7289 9.54785 30.9 9.61349C31.0711 9.67912 31.3032 9.716 31.5452 9.716C31.7872 9.716 32.0193 9.67912 32.1905 9.61349C32.3616 9.54785 32.4577 9.45882 32.4577 9.366V3.92C32.4577 3.82717 32.3616 3.73815 32.1905 3.67251C32.0193 3.60687 31.7872 3.57 31.5452 3.57C31.3032 3.57 31.0711 3.60687 30.9 3.67251C30.7289 3.73815 30.6327 3.82717 30.6327 3.92ZM23.0656 4.73088V8.18804C23.0656 8.28087 23.1617 8.36989 23.3328 8.43553C23.5039 8.50116 23.736 8.53804 23.9781 8.53804C24.2201 8.53804 24.4522 8.50116 24.6233 8.43553C24.7944 8.36989 24.8906 8.28087 24.8906 8.18804V4.73088C24.8906 4.63805 24.7944 4.54903 24.6233 4.48339C24.4522 4.41775 24.2201 4.38088 23.9781 4.38088C23.736 4.38088 23.5039 4.41775 23.3328 4.48339C23.1617 4.54903 23.0656 4.63805 23.0656 4.73088ZM7.93046 0.35V12.726C7.93046 12.8188 8.0266 12.9078 8.19773 12.9735C8.36885 13.0391 8.60095 13.076 8.84296 13.076C9.08497 13.076 9.31707 13.0391 9.4882 12.9735C9.65932 12.9078 9.75546 12.8188 9.75546 12.726V0.35C9.75546 0.257174 9.65932 0.168151 9.4882 0.102513C9.31707 0.0368752 9.08497 0 8.84296 0C8.60095 0 8.36885 0.0368752 8.19773 0.102513C8.0266 0.168151 7.93046 0.257174 7.93046 0.35ZM16.4101 10.659C16.53 10.6591 16.6487 10.65 16.7595 10.6325C16.8702 10.6149 16.9708 10.5891 17.0556 10.5566C17.1403 10.5241 17.2076 10.4855 17.2534 10.443C17.2992 10.4005 17.3227 10.355 17.3226 10.309V3.00272C17.3226 2.90989 17.2265 2.82087 17.0554 2.75523C16.8842 2.68959 16.6522 2.65272 16.4101 2.65272C16.1681 2.65272 15.936 2.68959 15.7649 2.75523C15.5938 2.82087 15.4976 2.90989 15.4976 3.00272V10.309C15.4976 10.4019 15.5938 10.4909 15.7649 10.5565C15.936 10.6222 16.1681 10.659 16.4101 10.659ZM20.1937 3.35972C19.9517 3.35972 19.7196 3.3966 19.5485 3.46223C19.3774 3.52787 19.2812 3.61689 19.2812 3.70972V9.156C19.2812 9.24882 19.3774 9.33785 19.5485 9.40349C19.7196 9.46912 19.9517 9.506 20.1937 9.506C20.4357 9.506 20.6678 9.46912 20.839 9.40349C21.0101 9.33785 21.1062 9.24882 21.1062 9.156V3.71C21.1063 3.66401 21.0828 3.61847 21.037 3.57597C20.9912 3.53348 20.924 3.49486 20.8392 3.46233C20.7545 3.4298 20.6539 3.404 20.5431 3.38639C20.4323 3.36878 20.3136 3.35972 20.1937 3.35972ZM27.7609 8.694C28.0029 8.694 28.235 8.65712 28.4061 8.59149C28.5773 8.52585 28.6734 8.43682 28.6734 8.344V4.88796C28.6734 4.79513 28.5773 4.70611 28.4061 4.64047C28.235 4.57483 28.0029 4.53796 27.7609 4.53796C27.5189 4.53796 27.2868 4.57483 27.1157 4.64047C26.9446 4.70611 26.8484 4.79513 26.8484 4.88796V8.34512C26.8492 8.43775 26.9457 8.52649 27.1167 8.59188C27.2878 8.65728 27.5194 8.694 27.7609 8.694ZM53.3343 2.76696V10.0733C53.3343 10.1661 53.4304 10.2551 53.6015 10.3208C53.7727 10.3864 54.0048 10.4233 54.2468 10.4233C54.4888 10.4233 54.7209 10.3864 54.892 10.3208C55.0631 10.2551 55.1593 10.1661 55.1593 10.0733V2.76696C55.1593 2.67413 55.0631 2.58511 54.892 2.51947C54.7209 2.45384 54.4888 2.41696 54.2468 2.41696C54.0048 2.41696 53.7727 2.45384 53.6015 2.51947C53.4304 2.58511 53.3343 2.67413 53.3343 2.76696ZM49.5507 3.92V9.366C49.5507 9.45882 49.6468 9.54785 49.8179 9.61349C49.9891 9.67912 50.2212 9.716 50.4632 9.716C50.7052 9.716 50.9373 9.67912 51.1084 9.61349C51.2795 9.54785 51.3757 9.45882 51.3757 9.366V3.92C51.3757 3.82717 51.2795 3.73815 51.1084 3.67251C50.9373 3.60687 50.7052 3.57 50.4632 3.57C50.2212 3.57 49.9891 3.60687 49.8179 3.67251C49.6468 3.73815 49.5507 3.82717 49.5507 3.92ZM42.896 8.53804C43.138 8.53804 43.3701 8.50116 43.5412 8.43553C43.7124 8.36989 43.8085 8.28087 43.8085 8.18804V4.73088C43.8085 4.63805 43.7124 4.54903 43.5412 4.48339C43.3701 4.41775 43.138 4.38088 42.896 4.38088C42.654 4.38088 42.4219 4.41775 42.2508 4.48339C42.0796 4.54903 41.9835 4.63805 41.9835 4.73088V8.18804C41.9835 8.28087 42.0796 8.36989 42.2508 8.43553C42.4219 8.50116 42.654 8.53804 42.896 8.53804ZM45.7671 4.88796V8.34512C45.7671 8.43794 45.8632 8.52697 46.0344 8.59261C46.2055 8.65824 46.4376 8.69512 46.6796 8.69512C46.9216 8.69512 47.1537 8.65824 47.3248 8.59261C47.496 8.52697 47.5921 8.43794 47.5921 8.34512V4.88796C47.5921 4.79513 47.496 4.70611 47.3248 4.64047C47.1537 4.57483 46.9216 4.53796 46.6796 4.53796C46.4376 4.53796 46.2055 4.57483 46.0344 4.64047C45.8632 4.70611 45.7671 4.79513 45.7671 4.88796ZM58.0304 4.382C57.7884 4.382 57.5563 4.41887 57.3851 4.48451C57.214 4.55015 57.1179 4.63917 57.1179 4.732V8.18804C57.1179 8.28087 57.214 8.36989 57.3851 8.43553C57.5563 8.50116 57.7884 8.53804 58.0304 8.53804C58.2724 8.53804 58.5045 8.50116 58.6756 8.43553C58.8467 8.36989 58.9429 8.28087 58.9429 8.18804V4.73088C58.9421 4.63825 58.8456 4.54951 58.6746 4.48412C58.5035 4.41872 58.2719 4.382 58.0304 4.382ZM11.7141 0.35V12.726C11.7141 12.8188 11.8102 12.9078 11.9813 12.9735C12.1524 13.0391 12.3845 13.076 12.6266 13.076C12.8686 13.076 13.1007 13.0391 13.2718 12.9735C13.4429 12.9078 13.5391 12.8188 13.5391 12.726V0.35C13.5391 0.257174 13.4429 0.168151 13.2718 0.102513C13.1007 0.0368752 12.8686 0 12.6266 0C12.3845 0 12.1524 0.0368752 11.9813 0.102513C11.8102 0.168151 11.7141 0.257174 11.7141 0.35ZM5.05937 2.41696C4.93951 2.41692 4.82081 2.42595 4.71006 2.44353C4.59931 2.4611 4.49867 2.48688 4.41392 2.51939C4.32917 2.5519 4.26196 2.5905 4.21614 2.63298C4.17031 2.67546 4.14678 2.72099 4.14687 2.76696V10.0733C4.14687 10.1661 4.24301 10.2551 4.41414 10.3208C4.58526 10.3864 4.81736 10.4233 5.05937 10.4233C5.30138 10.4233 5.53348 10.3864 5.70461 10.3208C5.87573 10.2551 5.97187 10.1661 5.97187 10.0733V2.76696C5.97187 2.67413 5.87573 2.58511 5.70461 2.51947C5.53348 2.45384 5.30138 2.41696 5.05937 2.41696ZM0.363281 3.92V9.366C0.363281 9.45882 0.459419 9.54785 0.630546 9.61349C0.801673 9.67912 1.03377 9.716 1.27578 9.716C1.51779 9.716 1.74989 9.67912 1.92102 9.61349C2.09214 9.54785 2.18828 9.45882 2.18828 9.366V3.92C2.18828 3.82717 2.09214 3.73815 1.92102 3.67251C1.74989 3.60687 1.51779 3.57 1.27578 3.57C1.03377 3.57 0.801673 3.60687 0.630546 3.67251C0.459419 3.73815 0.363281 3.82717 0.363281 3.92Z" fill="#398B39"/>
<path d="M99.6925 0.00111992C99.4505 0.00111992 99.2184 0.0379951 99.0473 0.103633C98.8761 0.169271 98.78 0.258294 98.78 0.35112V12.726C98.78 12.8188 98.8761 12.9078 99.0473 12.9735C99.2184 13.0391 99.4505 13.076 99.6925 13.076C99.9345 13.076 100.167 13.0391 100.338 12.9735C100.509 12.9078 100.605 12.8188 100.605 12.726V0.35C100.604 0.257368 100.508 0.168632 100.337 0.103237C100.166 0.0378408 99.934 0.00111944 99.6925 0.00111992ZM94.9957 2.76696V10.0733C94.9957 10.1661 95.0918 10.2551 95.2629 10.3208C95.4341 10.3864 95.6662 10.4233 95.9082 10.4233C96.1502 10.4233 96.3823 10.3864 96.5534 10.3208C96.7245 10.2551 96.8207 10.1661 96.8207 10.0733V2.76696C96.8207 2.67413 96.7245 2.58511 96.5534 2.51947C96.3823 2.45384 96.1502 2.41696 95.9082 2.41696C95.6662 2.41696 95.4341 2.45384 95.2629 2.51947C95.0918 2.58511 94.9957 2.67413 94.9957 2.76696ZM91.2128 3.92V9.366C91.2128 9.45882 91.3089 9.54785 91.4801 9.61349C91.6512 9.67912 91.8833 9.716 92.1253 9.716C92.3673 9.716 92.5994 9.67912 92.7705 9.61349C92.9417 9.54785 93.0378 9.45882 93.0378 9.366V3.92C93.0378 3.82717 92.9417 3.73815 92.7705 3.67251C92.5994 3.60687 92.3673 3.57 92.1253 3.57C91.8833 3.57 91.6512 3.60687 91.4801 3.67251C91.3089 3.73815 91.2128 3.82717 91.2128 3.92ZM83.6456 4.73088V8.18804C83.6456 8.28087 83.7418 8.36989 83.9129 8.43553C84.084 8.50116 84.3161 8.53804 84.5581 8.53804C84.8001 8.53804 85.0322 8.50116 85.2034 8.43553C85.3745 8.36989 85.4706 8.28087 85.4706 8.18804V4.73088C85.4706 4.63805 85.3745 4.54903 85.2034 4.48339C85.0322 4.41775 84.8001 4.38088 84.5581 4.38088C84.3161 4.38088 84.084 4.41775 83.9129 4.48339C83.7418 4.54903 83.6456 4.63805 83.6456 4.73088ZM68.5105 0.35V12.726C68.5105 12.8188 68.6067 12.9078 68.7778 12.9735C68.9489 13.0391 69.181 13.076 69.423 13.076C69.665 13.076 69.8971 13.0391 70.0683 12.9735C70.2394 12.9078 70.3355 12.8188 70.3355 12.726V0.35C70.3355 0.257174 70.2394 0.168151 70.0683 0.102513C69.8971 0.0368752 69.665 0 69.423 0C69.181 0 68.9489 0.0368752 68.7778 0.102513C68.6067 0.168151 68.5105 0.257174 68.5105 0.35ZM76.9902 10.659C77.1101 10.6591 77.2288 10.65 77.3395 10.6325C77.4503 10.6149 77.5509 10.5891 77.6357 10.5566C77.7204 10.5241 77.7876 10.4855 77.8335 10.443C77.8793 10.4005 77.9028 10.355 77.9027 10.309V3.00272C77.9027 2.90989 77.8066 2.82087 77.6355 2.75523C77.4643 2.68959 77.2322 2.65272 76.9902 2.65272C76.7482 2.65272 76.5161 2.68959 76.345 2.75523C76.1739 2.82087 76.0777 2.90989 76.0777 3.00272V10.309C76.0777 10.4019 76.1739 10.4909 76.345 10.5565C76.5161 10.6222 76.7482 10.659 76.9902 10.659ZM80.7738 3.35972C80.5318 3.35972 80.2997 3.3966 80.1286 3.46223C79.9574 3.52787 79.8613 3.61689 79.8613 3.70972V9.156C79.8613 9.24882 79.9574 9.33785 80.1286 9.40349C80.2997 9.46912 80.5318 9.506 80.7738 9.506C81.0158 9.506 81.2479 9.46912 81.419 9.40349C81.5902 9.33785 81.6863 9.24882 81.6863 9.156V3.71C81.6864 3.66401 81.6629 3.61847 81.6171 3.57597C81.5712 3.53348 81.504 3.49486 81.4193 3.46233C81.3346 3.4298 81.2339 3.404 81.1232 3.38639C81.0124 3.36878 80.8937 3.35972 80.7738 3.35972ZM88.341 8.694C88.583 8.694 88.8151 8.65712 88.9862 8.59149C89.1574 8.52585 89.2535 8.43682 89.2535 8.344V4.88796C89.2535 4.79513 89.1574 4.70611 88.9862 4.64047C88.8151 4.57483 88.583 4.53796 88.341 4.53796C88.099 4.53796 87.8669 4.57483 87.6958 4.64047C87.5246 4.70611 87.4285 4.79513 87.4285 4.88796V8.34512C87.4293 8.43775 87.5257 8.52649 87.6968 8.59188C87.8678 8.65728 88.0995 8.694 88.341 8.694ZM113.914 2.76696V10.0733C113.914 10.1661 114.01 10.2551 114.182 10.3208C114.353 10.3864 114.585 10.4233 114.827 10.4233C115.069 10.4233 115.301 10.3864 115.472 10.3208C115.643 10.2551 115.739 10.1661 115.739 10.0733V2.76696C115.739 2.67413 115.643 2.58511 115.472 2.51947C115.301 2.45384 115.069 2.41696 114.827 2.41696C114.585 2.41696 114.353 2.45384 114.182 2.51947C114.01 2.58511 113.914 2.67413 113.914 2.76696ZM110.131 3.92V9.366C110.131 9.45882 110.227 9.54785 110.398 9.61349C110.569 9.67912 110.801 9.716 111.043 9.716C111.285 9.716 111.517 9.67912 111.688 9.61349C111.86 9.54785 111.956 9.45882 111.956 9.366V3.92C111.956 3.82717 111.86 3.73815 111.688 3.67251C111.517 3.60687 111.285 3.57 111.043 3.57C110.801 3.57 110.569 3.60687 110.398 3.67251C110.227 3.73815 110.131 3.82717 110.131 3.92ZM103.476 8.53804C103.718 8.53804 103.95 8.50116 104.121 8.43553C104.292 8.36989 104.389 8.28087 104.389 8.18804V4.73088C104.389 4.63805 104.292 4.54903 104.121 4.48339C103.95 4.41775 103.718 4.38088 103.476 4.38088C103.234 4.38088 103.002 4.41775 102.831 4.48339C102.66 4.54903 102.564 4.63805 102.564 4.73088V8.18804C102.564 8.28087 102.66 8.36989 102.831 8.43553C103.002 8.50116 103.234 8.53804 103.476 8.53804ZM106.347 4.88796V8.34512C106.347 8.43794 106.443 8.52697 106.614 8.59261C106.786 8.65824 107.018 8.69512 107.26 8.69512C107.502 8.69512 107.734 8.65824 107.905 8.59261C108.076 8.52697 108.172 8.43794 108.172 8.34512V4.88796C108.172 4.79513 108.076 4.70611 107.905 4.64047C107.734 4.57483 107.502 4.53796 107.26 4.53796C107.018 4.53796 106.786 4.57483 106.614 4.64047C106.443 4.70611 106.347 4.79513 106.347 4.88796ZM118.61 4.382C118.368 4.382 118.136 4.41887 117.965 4.48451C117.794 4.55015 117.698 4.63917 117.698 4.732V8.18804C117.698 8.28087 117.794 8.36989 117.965 8.43553C118.136 8.50116 118.368 8.53804 118.61 8.53804C118.852 8.53804 119.085 8.50116 119.256 8.43553C119.427 8.36989 119.523 8.28087 119.523 8.18804V4.73088C119.522 4.63825 119.426 4.54951 119.255 4.48412C119.084 4.41872 118.852 4.382 118.61 4.382ZM72.2941 0.35V12.726C72.2941 12.8188 72.3903 12.9078 72.5614 12.9735C72.7325 13.0391 72.9646 13.076 73.2066 13.076C73.4486 13.076 73.6807 13.0391 73.8519 12.9735C74.023 12.9078 74.1191 12.8188 74.1191 12.726V0.35C74.1191 0.257174 74.023 0.168151 73.8519 0.102513C73.6807 0.0368752 73.4486 0 73.2066 0C72.9646 0 72.7325 0.0368752 72.5614 0.102513C72.3903 0.168151 72.2941 0.257174 72.2941 0.35ZM65.6394 2.41696C65.5196 2.41692 65.4009 2.42595 65.2901 2.44353C65.1794 2.4611 65.0788 2.48688 64.994 2.51939C64.9092 2.5519 64.842 2.5905 64.7962 2.63298C64.7504 2.67546 64.7269 2.72099 64.7269 2.76696V10.0733C64.7269 10.1661 64.8231 10.2551 64.9942 10.3208C65.1653 10.3864 65.3974 10.4233 65.6394 10.4233C65.8815 10.4233 66.1136 10.3864 66.2847 10.3208C66.4558 10.2551 66.5519 10.1661 66.5519 10.0733V2.76696C66.5519 2.67413 66.4558 2.58511 66.2847 2.51947C66.1136 2.45384 65.8815 2.41696 65.6394 2.41696ZM60.9434 3.92V9.366C60.9434 9.45882 61.0395 9.54785 61.2106 9.61349C61.3818 9.67912 61.6138 9.716 61.8559 9.716C62.0979 9.716 62.33 9.67912 62.5011 9.61349C62.6722 9.54785 62.7684 9.45882 62.7684 9.366V3.92C62.7684 3.82717 62.6722 3.73815 62.5011 3.67251C62.33 3.60687 62.0979 3.57 61.8559 3.57C61.6138 3.57 61.3818 3.60687 61.2106 3.67251C61.0395 3.73815 60.9434 3.82717 60.9434 3.92Z" fill="#398B39"/>
<path d="M158.271 0.00111992C158.029 0.00111992 157.797 0.0379951 157.625 0.103633C157.454 0.169271 157.358 0.258294 157.358 0.35112V12.726C157.358 12.8188 157.454 12.9078 157.625 12.9735C157.797 13.0391 158.029 13.076 158.271 13.076C158.513 13.076 158.745 13.0391 158.916 12.9735C159.087 12.9078 159.183 12.8188 159.183 12.726V0.35C159.182 0.257368 159.086 0.168632 158.915 0.103237C158.744 0.0378408 158.512 0.00111944 158.271 0.00111992ZM153.574 2.76696V10.0733C153.574 10.1661 153.67 10.2551 153.841 10.3208C154.012 10.3864 154.244 10.4233 154.486 10.4233C154.728 10.4233 154.96 10.3864 155.132 10.3208C155.303 10.2551 155.399 10.1661 155.399 10.0733V2.76696C155.399 2.67413 155.303 2.58511 155.132 2.51947C154.96 2.45384 154.728 2.41696 154.486 2.41696C154.244 2.41696 154.012 2.45384 153.841 2.51947C153.67 2.58511 153.574 2.67413 153.574 2.76696ZM149.791 3.92V9.366C149.791 9.45882 149.887 9.54785 150.058 9.61349C150.229 9.67912 150.461 9.716 150.703 9.716C150.945 9.716 151.178 9.67912 151.349 9.61349C151.52 9.54785 151.616 9.45882 151.616 9.366V3.92C151.616 3.82717 151.52 3.73815 151.349 3.67251C151.178 3.60687 150.945 3.57 150.703 3.57C150.461 3.57 150.229 3.60687 150.058 3.67251C149.887 3.73815 149.791 3.82717 149.791 3.92ZM142.224 4.73088V8.18804C142.224 8.28087 142.32 8.36989 142.491 8.43553C142.662 8.50116 142.894 8.53804 143.136 8.53804C143.378 8.53804 143.61 8.50116 143.781 8.43553C143.953 8.36989 144.049 8.28087 144.049 8.18804V4.73088C144.049 4.63805 143.953 4.54903 143.781 4.48339C143.61 4.41775 143.378 4.38088 143.136 4.38088C142.894 4.38088 142.662 4.41775 142.491 4.48339C142.32 4.54903 142.224 4.63805 142.224 4.73088ZM127.089 0.35V12.726C127.089 12.8188 127.185 12.9078 127.356 12.9735C127.527 13.0391 127.759 13.076 128.001 13.076C128.243 13.076 128.475 13.0391 128.646 12.9735C128.818 12.9078 128.914 12.8188 128.914 12.726V0.35C128.914 0.257174 128.818 0.168151 128.646 0.102513C128.475 0.0368752 128.243 0 128.001 0C127.759 0 127.527 0.0368752 127.356 0.102513C127.185 0.168151 127.089 0.257174 127.089 0.35ZM135.568 10.659C135.688 10.6591 135.807 10.65 135.918 10.6325C136.028 10.6149 136.129 10.5891 136.214 10.5566C136.299 10.5241 136.366 10.4855 136.412 10.443C136.457 10.4005 136.481 10.355 136.481 10.309V3.00272C136.481 2.90989 136.385 2.82087 136.214 2.75523C136.042 2.68959 135.81 2.65272 135.568 2.65272C135.326 2.65272 135.094 2.68959 134.923 2.75523C134.752 2.82087 134.656 2.90989 134.656 3.00272V10.309C134.656 10.4019 134.752 10.4909 134.923 10.5565C135.094 10.6222 135.326 10.659 135.568 10.659ZM139.352 3.35972C139.11 3.35972 138.878 3.3966 138.707 3.46223C138.536 3.52787 138.439 3.61689 138.439 3.70972V9.156C138.439 9.24882 138.536 9.33785 138.707 9.40349C138.878 9.46912 139.11 9.506 139.352 9.506C139.594 9.506 139.826 9.46912 139.997 9.40349C140.168 9.33785 140.264 9.24882 140.264 9.156V3.71C140.265 3.66401 140.241 3.61847 140.195 3.57597C140.149 3.53348 140.082 3.49486 139.997 3.46233C139.913 3.4298 139.812 3.404 139.701 3.38639C139.591 3.36878 139.472 3.35972 139.352 3.35972ZM146.919 8.694C147.161 8.694 147.393 8.65712 147.564 8.59149C147.735 8.52585 147.832 8.43682 147.832 8.344V4.88796C147.832 4.79513 147.735 4.70611 147.564 4.64047C147.393 4.57483 147.161 4.53796 146.919 4.53796C146.677 4.53796 146.445 4.57483 146.274 4.64047C146.103 4.70611 146.007 4.79513 146.007 4.88796V8.34512C146.007 8.43775 146.104 8.52649 146.275 8.59188C146.446 8.65728 146.678 8.694 146.919 8.694ZM172.492 2.76696V10.0733C172.492 10.1661 172.589 10.2551 172.76 10.3208C172.931 10.3864 173.163 10.4233 173.405 10.4233C173.647 10.4233 173.879 10.3864 174.05 10.3208C174.221 10.2551 174.317 10.1661 174.317 10.0733V2.76696C174.317 2.67413 174.221 2.58511 174.05 2.51947C173.879 2.45384 173.647 2.41696 173.405 2.41696C173.163 2.41696 172.931 2.45384 172.76 2.51947C172.589 2.58511 172.492 2.67413 172.492 2.76696ZM168.709 3.92V9.366C168.709 9.45882 168.805 9.54785 168.976 9.61349C169.147 9.67912 169.379 9.716 169.621 9.716C169.863 9.716 170.095 9.67912 170.267 9.61349C170.438 9.54785 170.534 9.45882 170.534 9.366V3.92C170.534 3.82717 170.438 3.73815 170.267 3.67251C170.095 3.60687 169.863 3.57 169.621 3.57C169.379 3.57 169.147 3.60687 168.976 3.67251C168.805 3.73815 168.709 3.82717 168.709 3.92ZM162.054 8.53804C162.296 8.53804 162.528 8.50116 162.699 8.43553C162.871 8.36989 162.967 8.28087 162.967 8.18804V4.73088C162.967 4.63805 162.871 4.54903 162.699 4.48339C162.528 4.41775 162.296 4.38088 162.054 4.38088C161.812 4.38088 161.58 4.41775 161.409 4.48339C161.238 4.54903 161.142 4.63805 161.142 4.73088V8.18804C161.142 8.28087 161.238 8.36989 161.409 8.43553C161.58 8.50116 161.812 8.53804 162.054 8.53804ZM164.925 4.88796V8.34512C164.925 8.43794 165.021 8.52697 165.193 8.59261C165.364 8.65824 165.596 8.69512 165.838 8.69512C166.08 8.69512 166.312 8.65824 166.483 8.59261C166.654 8.52697 166.75 8.43794 166.75 8.34512V4.88796C166.75 4.79513 166.654 4.70611 166.483 4.64047C166.312 4.57483 166.08 4.53796 165.838 4.53796C165.596 4.53796 165.364 4.57483 165.193 4.64047C165.021 4.70611 164.925 4.79513 164.925 4.88796ZM177.189 4.382C176.947 4.382 176.714 4.41887 176.543 4.48451C176.372 4.55015 176.276 4.63917 176.276 4.732V8.18804C176.276 8.28087 176.372 8.36989 176.543 8.43553C176.714 8.50116 176.947 8.53804 177.189 8.53804C177.431 8.53804 177.663 8.50116 177.834 8.43553C178.005 8.36989 178.101 8.28087 178.101 8.18804V4.73088C178.1 4.63825 178.004 4.54951 177.833 4.48412C177.662 4.41872 177.43 4.382 177.189 4.382ZM130.872 0.35V12.726C130.872 12.8188 130.968 12.9078 131.14 12.9735C131.311 13.0391 131.543 13.076 131.785 13.076C132.027 13.076 132.259 13.0391 132.43 12.9735C132.601 12.9078 132.697 12.8188 132.697 12.726V0.35C132.697 0.257174 132.601 0.168151 132.43 0.102513C132.259 0.0368752 132.027 0 131.785 0C131.543 0 131.311 0.0368752 131.14 0.102513C130.968 0.168151 130.872 0.257174 130.872 0.35ZM124.218 2.41696C124.098 2.41692 123.979 2.42595 123.868 2.44353C123.758 2.4611 123.657 2.48688 123.572 2.51939C123.487 2.5519 123.42 2.5905 123.374 2.63298C123.329 2.67546 123.305 2.72099 123.305 2.76696V10.0733C123.305 10.1661 123.401 10.2551 123.572 10.3208C123.743 10.3864 123.976 10.4233 124.218 10.4233C124.46 10.4233 124.692 10.3864 124.863 10.3208C125.034 10.2551 125.13 10.1661 125.13 10.0733V2.76696C125.13 2.67413 125.034 2.58511 124.863 2.51947C124.692 2.45384 124.46 2.41696 124.218 2.41696ZM119.521 3.92V9.366C119.521 9.45882 119.618 9.54785 119.789 9.61349C119.96 9.67912 120.192 9.716 120.434 9.716C120.676 9.716 120.908 9.67912 121.079 9.61349C121.25 9.54785 121.346 9.45882 121.346 9.366V3.92C121.346 3.82717 121.25 3.73815 121.079 3.67251C120.908 3.60687 120.676 3.57 120.434 3.57C120.192 3.57 119.96 3.60687 119.789 3.67251C119.618 3.73815 119.521 3.82717 119.521 3.92Z" fill="#398B39"/>
<path d="M218.851 0.00111992C218.609 0.00111992 218.377 0.0379951 218.205 0.103633C218.034 0.169271 217.938 0.258294 217.938 0.35112V12.726C217.938 12.8188 218.034 12.9078 218.205 12.9735C218.377 13.0391 218.609 13.076 218.851 13.076C219.093 13.076 219.325 13.0391 219.496 12.9735C219.667 12.9078 219.763 12.8188 219.763 12.726V0.35C219.762 0.257368 219.666 0.168632 219.495 0.103237C219.324 0.0378408 219.092 0.00111944 218.851 0.00111992ZM214.154 2.76696V10.0733C214.154 10.1661 214.25 10.2551 214.421 10.3208C214.592 10.3864 214.824 10.4233 215.066 10.4233C215.308 10.4233 215.54 10.3864 215.712 10.3208C215.883 10.2551 215.979 10.1661 215.979 10.0733V2.76696C215.979 2.67413 215.883 2.58511 215.712 2.51947C215.54 2.45384 215.308 2.41696 215.066 2.41696C214.824 2.41696 214.592 2.45384 214.421 2.51947C214.25 2.58511 214.154 2.67413 214.154 2.76696ZM210.371 3.92V9.366C210.371 9.45882 210.467 9.54785 210.638 9.61349C210.809 9.67912 211.042 9.716 211.284 9.716C211.526 9.716 211.758 9.67912 211.929 9.61349C212.1 9.54785 212.196 9.45882 212.196 9.366V3.92C212.196 3.82717 212.1 3.73815 211.929 3.67251C211.758 3.60687 211.526 3.57 211.284 3.57C211.042 3.57 210.809 3.60687 210.638 3.67251C210.467 3.73815 210.371 3.82717 210.371 3.92ZM202.804 4.73088V8.18804C202.804 8.28087 202.9 8.36989 203.071 8.43553C203.242 8.50116 203.474 8.53804 203.716 8.53804C203.958 8.53804 204.19 8.50116 204.362 8.43553C204.533 8.36989 204.629 8.28087 204.629 8.18804V4.73088C204.629 4.63805 204.533 4.54903 204.362 4.48339C204.19 4.41775 203.958 4.38088 203.716 4.38088C203.474 4.38088 203.242 4.41775 203.071 4.48339C202.9 4.54903 202.804 4.63805 202.804 4.73088ZM187.669 0.35V12.726C187.669 12.8188 187.765 12.9078 187.936 12.9735C188.107 13.0391 188.339 13.076 188.581 13.076C188.823 13.076 189.055 13.0391 189.226 12.9735C189.398 12.9078 189.494 12.8188 189.494 12.726V0.35C189.494 0.257174 189.398 0.168151 189.226 0.102513C189.055 0.0368752 188.823 0 188.581 0C188.339 0 188.107 0.0368752 187.936 0.102513C187.765 0.168151 187.669 0.257174 187.669 0.35ZM196.148 10.659C196.268 10.6591 196.387 10.65 196.498 10.6325C196.608 10.6149 196.709 10.5891 196.794 10.5566C196.879 10.5241 196.946 10.4855 196.992 10.443C197.037 10.4005 197.061 10.355 197.061 10.309V3.00272C197.061 2.90989 196.965 2.82087 196.794 2.75523C196.623 2.68959 196.39 2.65272 196.148 2.65272C195.906 2.65272 195.674 2.68959 195.503 2.75523C195.332 2.82087 195.236 2.90989 195.236 3.00272V10.309C195.236 10.4019 195.332 10.4909 195.503 10.5565C195.674 10.6222 195.906 10.659 196.148 10.659ZM199.932 3.35972C199.69 3.35972 199.458 3.3966 199.287 3.46223C199.116 3.52787 199.02 3.61689 199.02 3.70972V9.156C199.02 9.24882 199.116 9.33785 199.287 9.40349C199.458 9.46912 199.69 9.506 199.932 9.506C200.174 9.506 200.406 9.46912 200.577 9.40349C200.748 9.33785 200.845 9.24882 200.845 9.156V3.71C200.845 3.66401 200.821 3.61847 200.775 3.57597C200.729 3.53348 200.662 3.49486 200.578 3.46233C200.493 3.4298 200.392 3.404 200.281 3.38639C200.171 3.36878 200.052 3.35972 199.932 3.35972ZM207.499 8.694C207.741 8.694 207.973 8.65712 208.144 8.59149C208.316 8.52585 208.412 8.43682 208.412 8.344V4.88796C208.412 4.79513 208.316 4.70611 208.144 4.64047C207.973 4.57483 207.741 4.53796 207.499 4.53796C207.257 4.53796 207.025 4.57483 206.854 4.64047C206.683 4.70611 206.587 4.79513 206.587 4.88796V8.34512C206.587 8.43775 206.684 8.52649 206.855 8.59188C207.026 8.65728 207.258 8.694 207.499 8.694ZM233.073 2.76696V10.0733C233.073 10.1661 233.169 10.2551 233.34 10.3208C233.511 10.3864 233.743 10.4233 233.985 10.4233C234.227 10.4233 234.459 10.3864 234.63 10.3208C234.801 10.2551 234.898 10.1661 234.898 10.0733V2.76696C234.898 2.67413 234.801 2.58511 234.63 2.51947C234.459 2.45384 234.227 2.41696 233.985 2.41696C233.743 2.41696 233.511 2.45384 233.34 2.51947C233.169 2.58511 233.073 2.67413 233.073 2.76696ZM229.289 3.92V9.366C229.289 9.45882 229.385 9.54785 229.556 9.61349C229.727 9.67912 229.959 9.716 230.201 9.716C230.443 9.716 230.676 9.67912 230.847 9.61349C231.018 9.54785 231.114 9.45882 231.114 9.366V3.92C231.114 3.82717 231.018 3.73815 230.847 3.67251C230.676 3.60687 230.443 3.57 230.201 3.57C229.959 3.57 229.727 3.60687 229.556 3.67251C229.385 3.73815 229.289 3.82717 229.289 3.92ZM222.634 8.53804C222.876 8.53804 223.108 8.50116 223.28 8.43553C223.451 8.36989 223.547 8.28087 223.547 8.18804V4.73088C223.547 4.63805 223.451 4.54903 223.28 4.48339C223.108 4.41775 222.876 4.38088 222.634 4.38088C222.392 4.38088 222.16 4.41775 221.989 4.48339C221.818 4.54903 221.722 4.63805 221.722 4.73088V8.18804C221.722 8.28087 221.818 8.36989 221.989 8.43553C222.16 8.50116 222.392 8.53804 222.634 8.53804ZM225.505 4.88796V8.34512C225.505 8.43794 225.602 8.52697 225.773 8.59261C225.944 8.65824 226.176 8.69512 226.418 8.69512C226.66 8.69512 226.892 8.65824 227.063 8.59261C227.234 8.52697 227.33 8.43794 227.33 8.34512V4.88796C227.33 4.79513 227.234 4.70611 227.063 4.64047C226.892 4.57483 226.66 4.53796 226.418 4.53796C226.176 4.53796 225.944 4.57483 225.773 4.64047C225.602 4.70611 225.505 4.79513 225.505 4.88796ZM237.769 4.382C237.527 4.382 237.295 4.41887 237.123 4.48451C236.952 4.55015 236.856 4.63917 236.856 4.732V8.18804C236.856 8.28087 236.952 8.36989 237.123 8.43553C237.295 8.50116 237.527 8.53804 237.769 8.53804C238.011 8.53804 238.243 8.50116 238.414 8.43553C238.585 8.36989 238.681 8.28087 238.681 8.18804V4.73088C238.68 4.63825 238.584 4.54951 238.413 4.48412C238.242 4.41872 238.01 4.382 237.769 4.382ZM191.452 0.35V12.726C191.452 12.8188 191.548 12.9078 191.72 12.9735C191.891 13.0391 192.123 13.076 192.365 13.076C192.607 13.076 192.839 13.0391 193.01 12.9735C193.181 12.9078 193.277 12.8188 193.277 12.726V0.35C193.277 0.257174 193.181 0.168151 193.01 0.102513C192.839 0.0368752 192.607 0 192.365 0C192.123 0 191.891 0.0368752 191.72 0.102513C191.548 0.168151 191.452 0.257174 191.452 0.35ZM184.798 2.41696C184.678 2.41692 184.559 2.42595 184.448 2.44353C184.338 2.4611 184.237 2.48688 184.152 2.51939C184.067 2.5519 184 2.5905 183.954 2.63298C183.909 2.67546 183.885 2.72099 183.885 2.76696V10.0733C183.885 10.1661 183.981 10.2551 184.152 10.3208C184.324 10.3864 184.556 10.4233 184.798 10.4233C185.04 10.4233 185.272 10.3864 185.443 10.3208C185.614 10.2551 185.71 10.1661 185.71 10.0733V2.76696C185.71 2.67413 185.614 2.58511 185.443 2.51947C185.272 2.45384 185.04 2.41696 184.798 2.41696ZM180.102 3.92V9.366C180.102 9.45882 180.198 9.54785 180.369 9.61349C180.54 9.67912 180.772 9.716 181.014 9.716C181.256 9.716 181.488 9.67912 181.659 9.61349C181.83 9.54785 181.927 9.45882 181.927 9.366V3.92C181.927 3.82717 181.83 3.73815 181.659 3.67251C181.488 3.60687 181.256 3.57 181.014 3.57C180.772 3.57 180.54 3.60687 180.369 3.67251C180.198 3.73815 180.102 3.82717 180.102 3.92Z" fill="#398B39"/>
<path d="M277.431 0.00111992C277.189 0.00111992 276.957 0.0379951 276.786 0.103633C276.614 0.169271 276.518 0.258294 276.518 0.35112V12.726C276.518 12.8188 276.614 12.9078 276.786 12.9735C276.957 13.0391 277.189 13.076 277.431 13.076C277.673 13.076 277.905 13.0391 278.076 12.9735C278.247 12.9078 278.343 12.8188 278.343 12.726V0.35C278.342 0.257368 278.246 0.168632 278.075 0.103237C277.904 0.0378408 277.672 0.00111944 277.431 0.00111992ZM272.734 2.76696V10.0733C272.734 10.1661 272.83 10.2551 273.001 10.3208C273.172 10.3864 273.404 10.4233 273.646 10.4233C273.888 10.4233 274.121 10.3864 274.292 10.3208C274.463 10.2551 274.559 10.1661 274.559 10.0733V2.76696C274.559 2.67413 274.463 2.58511 274.292 2.51947C274.121 2.45384 273.888 2.41696 273.646 2.41696C273.404 2.41696 273.172 2.45384 273.001 2.51947C272.83 2.58511 272.734 2.67413 272.734 2.76696ZM268.951 3.92V9.366C268.951 9.45882 269.047 9.54785 269.218 9.61349C269.389 9.67912 269.622 9.716 269.864 9.716C270.106 9.716 270.338 9.67912 270.509 9.61349C270.68 9.54785 270.776 9.45882 270.776 9.366V3.92C270.776 3.82717 270.68 3.73815 270.509 3.67251C270.338 3.60687 270.106 3.57 269.864 3.57C269.622 3.57 269.389 3.60687 269.218 3.67251C269.047 3.73815 268.951 3.82717 268.951 3.92ZM261.384 4.73088V8.18804C261.384 8.28087 261.48 8.36989 261.651 8.43553C261.822 8.50116 262.054 8.53804 262.296 8.53804C262.538 8.53804 262.771 8.50116 262.942 8.43553C263.113 8.36989 263.209 8.28087 263.209 8.18804V4.73088C263.209 4.63805 263.113 4.54903 262.942 4.48339C262.771 4.41775 262.538 4.38088 262.296 4.38088C262.054 4.38088 261.822 4.41775 261.651 4.48339C261.48 4.54903 261.384 4.63805 261.384 4.73088ZM246.249 0.35V12.726C246.249 12.8188 246.345 12.9078 246.516 12.9735C246.687 13.0391 246.919 13.076 247.161 13.076C247.403 13.076 247.635 13.0391 247.807 12.9735C247.978 12.9078 248.074 12.8188 248.074 12.726V0.35C248.074 0.257174 247.978 0.168151 247.807 0.102513C247.635 0.0368752 247.403 0 247.161 0C246.919 0 246.687 0.0368752 246.516 0.102513C246.345 0.168151 246.249 0.257174 246.249 0.35ZM254.729 10.659C254.848 10.6591 254.967 10.65 255.078 10.6325C255.189 10.6149 255.289 10.5891 255.374 10.5566C255.459 10.5241 255.526 10.4855 255.572 10.443C255.618 10.4005 255.641 10.355 255.641 10.309V3.00272C255.641 2.90989 255.545 2.82087 255.374 2.75523C255.203 2.68959 254.971 2.65272 254.729 2.65272C254.486 2.65272 254.254 2.68959 254.083 2.75523C253.912 2.82087 253.816 2.90989 253.816 3.00272V10.309C253.816 10.4019 253.912 10.4909 254.083 10.5565C254.254 10.6222 254.486 10.659 254.729 10.659ZM258.512 3.35972C258.27 3.35972 258.038 3.3966 257.867 3.46223C257.696 3.52787 257.6 3.61689 257.6 3.70972V9.156C257.6 9.24882 257.696 9.33785 257.867 9.40349C258.038 9.46912 258.27 9.506 258.512 9.506C258.754 9.506 258.986 9.46912 259.157 9.40349C259.328 9.33785 259.425 9.24882 259.425 9.156V3.71C259.425 3.66401 259.401 3.61847 259.355 3.57597C259.31 3.53348 259.242 3.49486 259.158 3.46233C259.073 3.4298 258.972 3.404 258.861 3.38639C258.751 3.36878 258.632 3.35972 258.512 3.35972ZM266.079 8.694C266.321 8.694 266.553 8.65712 266.725 8.59149C266.896 8.52585 266.992 8.43682 266.992 8.344V4.88796C266.992 4.79513 266.896 4.70611 266.725 4.64047C266.553 4.57483 266.321 4.53796 266.079 4.53796C265.837 4.53796 265.605 4.57483 265.434 4.64047C265.263 4.70611 265.167 4.79513 265.167 4.88796V8.34512C265.168 8.43775 265.264 8.52649 265.435 8.59188C265.606 8.65728 265.838 8.694 266.079 8.694ZM291.653 2.76696V10.0733C291.653 10.1661 291.749 10.2551 291.92 10.3208C292.091 10.3864 292.323 10.4233 292.565 10.4233C292.807 10.4233 293.039 10.3864 293.21 10.3208C293.381 10.2551 293.478 10.1661 293.478 10.0733V2.76696C293.478 2.67413 293.381 2.58511 293.21 2.51947C293.039 2.45384 292.807 2.41696 292.565 2.41696C292.323 2.41696 292.091 2.45384 291.92 2.51947C291.749 2.58511 291.653 2.67413 291.653 2.76696ZM287.869 3.92V9.366C287.869 9.45882 287.965 9.54785 288.136 9.61349C288.307 9.67912 288.54 9.716 288.782 9.716C289.024 9.716 289.256 9.67912 289.427 9.61349C289.598 9.54785 289.694 9.45882 289.694 9.366V3.92C289.694 3.82717 289.598 3.73815 289.427 3.67251C289.256 3.60687 289.024 3.57 288.782 3.57C288.54 3.57 288.307 3.60687 288.136 3.67251C287.965 3.73815 287.869 3.82717 287.869 3.92ZM281.214 8.53804C281.456 8.53804 281.688 8.50116 281.86 8.43553C282.031 8.36989 282.127 8.28087 282.127 8.18804V4.73088C282.127 4.63805 282.031 4.54903 281.86 4.48339C281.688 4.41775 281.456 4.38088 281.214 4.38088C280.972 4.38088 280.74 4.41775 280.569 4.48339C280.398 4.54903 280.302 4.63805 280.302 4.73088V8.18804C280.302 8.28087 280.398 8.36989 280.569 8.43553C280.74 8.50116 280.972 8.53804 281.214 8.53804ZM284.085 4.88796V8.34512C284.085 8.43794 284.182 8.52697 284.353 8.59261C284.524 8.65824 284.756 8.69512 284.998 8.69512C285.24 8.69512 285.472 8.65824 285.643 8.59261C285.814 8.52697 285.91 8.43794 285.91 8.34512V4.88796C285.91 4.79513 285.814 4.70611 285.643 4.64047C285.472 4.57483 285.24 4.53796 284.998 4.53796C284.756 4.53796 284.524 4.57483 284.353 4.64047C284.182 4.70611 284.085 4.79513 284.085 4.88796ZM296.349 4.382C296.107 4.382 295.875 4.41887 295.703 4.48451C295.532 4.55015 295.436 4.63917 295.436 4.732V8.18804C295.436 8.28087 295.532 8.36989 295.703 8.43553C295.875 8.50116 296.107 8.53804 296.349 8.53804C296.591 8.53804 296.823 8.50116 296.994 8.43553C297.165 8.36989 297.261 8.28087 297.261 8.18804V4.73088C297.26 4.63825 297.164 4.54951 296.993 4.48412C296.822 4.41872 296.59 4.382 296.349 4.382ZM250.032 0.35V12.726C250.032 12.8188 250.129 12.9078 250.3 12.9735C250.471 13.0391 250.703 13.076 250.945 13.076C251.187 13.076 251.419 13.0391 251.59 12.9735C251.761 12.9078 251.857 12.8188 251.857 12.726V0.35C251.857 0.257174 251.761 0.168151 251.59 0.102513C251.419 0.0368752 251.187 0 250.945 0C250.703 0 250.471 0.0368752 250.3 0.102513C250.129 0.168151 250.032 0.257174 250.032 0.35ZM243.378 2.41696C243.258 2.41692 243.139 2.42595 243.028 2.44353C242.918 2.4611 242.817 2.48688 242.732 2.51939C242.648 2.5519 242.58 2.5905 242.534 2.63298C242.489 2.67546 242.465 2.72099 242.465 2.76696V10.0733C242.465 10.1661 242.561 10.2551 242.732 10.3208C242.904 10.3864 243.136 10.4233 243.378 10.4233C243.62 10.4233 243.852 10.3864 244.023 10.3208C244.194 10.2551 244.29 10.1661 244.29 10.0733V2.76696C244.29 2.67413 244.194 2.58511 244.023 2.51947C243.852 2.45384 243.62 2.41696 243.378 2.41696ZM238.682 3.92V9.366C238.682 9.45882 238.778 9.54785 238.949 9.61349C239.12 9.67912 239.352 9.716 239.594 9.716C239.836 9.716 240.068 9.67912 240.239 9.61349C240.411 9.54785 240.507 9.45882 240.507 9.366V3.92C240.507 3.82717 240.411 3.73815 240.239 3.67251C240.068 3.60687 239.836 3.57 239.594 3.57C239.352 3.57 239.12 3.60687 238.949 3.67251C238.778 3.73815 238.682 3.82717 238.682 3.92Z" fill="#B4C0D0"/>
<path d="M338.011 0.00111992C337.769 0.00111992 337.537 0.0379951 337.366 0.103633C337.194 0.169271 337.098 0.258294 337.098 0.35112V12.726C337.098 12.8188 337.194 12.9078 337.366 12.9735C337.537 13.0391 337.769 13.076 338.011 13.076C338.253 13.076 338.485 13.0391 338.656 12.9735C338.827 12.9078 338.923 12.8188 338.923 12.726V0.35C338.923 0.257368 338.826 0.168632 338.655 0.103237C338.484 0.0378408 338.252 0.00111944 338.011 0.00111992ZM333.314 2.76696V10.0733C333.314 10.1661 333.41 10.2551 333.581 10.3208C333.752 10.3864 333.985 10.4233 334.227 10.4233C334.469 10.4233 334.701 10.3864 334.872 10.3208C335.043 10.2551 335.139 10.1661 335.139 10.0733V2.76696C335.139 2.67413 335.043 2.58511 334.872 2.51947C334.701 2.45384 334.469 2.41696 334.227 2.41696C333.985 2.41696 333.752 2.45384 333.581 2.51947C333.41 2.58511 333.314 2.67413 333.314 2.76696ZM329.531 3.92V9.366C329.531 9.45882 329.627 9.54785 329.798 9.61349C329.97 9.67912 330.202 9.716 330.444 9.716C330.686 9.716 330.918 9.67912 331.089 9.61349C331.26 9.54785 331.356 9.45882 331.356 9.366V3.92C331.356 3.82717 331.26 3.73815 331.089 3.67251C330.918 3.60687 330.686 3.57 330.444 3.57C330.202 3.57 329.97 3.60687 329.798 3.67251C329.627 3.73815 329.531 3.82717 329.531 3.92ZM321.964 4.73088V8.18804C321.964 8.28087 322.06 8.36989 322.231 8.43553C322.402 8.50116 322.634 8.53804 322.876 8.53804C323.119 8.53804 323.351 8.50116 323.522 8.43553C323.693 8.36989 323.789 8.28087 323.789 8.18804V4.73088C323.789 4.63805 323.693 4.54903 323.522 4.48339C323.351 4.41775 323.119 4.38088 322.876 4.38088C322.634 4.38088 322.402 4.41775 322.231 4.48339C322.06 4.54903 321.964 4.63805 321.964 4.73088ZM306.829 0.35V12.726C306.829 12.8188 306.925 12.9078 307.096 12.9735C307.267 13.0391 307.499 13.076 307.741 13.076C307.983 13.076 308.216 13.0391 308.387 12.9735C308.558 12.9078 308.654 12.8188 308.654 12.726V0.35C308.654 0.257174 308.558 0.168151 308.387 0.102513C308.216 0.0368752 307.983 0 307.741 0C307.499 0 307.267 0.0368752 307.096 0.102513C306.925 0.168151 306.829 0.257174 306.829 0.35ZM315.309 10.659C315.428 10.6591 315.547 10.65 315.658 10.6325C315.769 10.6149 315.869 10.5891 315.954 10.5566C316.039 10.5241 316.106 10.4855 316.152 10.443C316.198 10.4005 316.221 10.355 316.221 10.309V3.00272C316.221 2.90989 316.125 2.82087 315.954 2.75523C315.783 2.68959 315.551 2.65272 315.309 2.65272C315.067 2.65272 314.834 2.68959 314.663 2.75523C314.492 2.82087 314.396 2.90989 314.396 3.00272V10.309C314.396 10.4019 314.492 10.4909 314.663 10.5565C314.834 10.6222 315.067 10.659 315.309 10.659ZM319.092 3.35972C318.85 3.35972 318.618 3.3966 318.447 3.46223C318.276 3.52787 318.18 3.61689 318.18 3.70972V9.156C318.18 9.24882 318.276 9.33785 318.447 9.40349C318.618 9.46912 318.85 9.506 319.092 9.506C319.334 9.506 319.566 9.46912 319.737 9.40349C319.909 9.33785 320.005 9.24882 320.005 9.156V3.71C320.005 3.66401 319.981 3.61847 319.935 3.57597C319.89 3.53348 319.822 3.49486 319.738 3.46233C319.653 3.4298 319.552 3.404 319.442 3.38639C319.331 3.36878 319.212 3.35972 319.092 3.35972ZM326.659 8.694C326.901 8.694 327.133 8.65712 327.305 8.59149C327.476 8.52585 327.572 8.43682 327.572 8.344V4.88796C327.572 4.79513 327.476 4.70611 327.305 4.64047C327.133 4.57483 326.901 4.53796 326.659 4.53796C326.417 4.53796 326.185 4.57483 326.014 4.64047C325.843 4.70611 325.747 4.79513 325.747 4.88796V8.34512C325.748 8.43775 325.844 8.52649 326.015 8.59188C326.186 8.65728 326.418 8.694 326.659 8.694ZM352.233 2.76696V10.0733C352.233 10.1661 352.329 10.2551 352.5 10.3208C352.671 10.3864 352.903 10.4233 353.145 10.4233C353.387 10.4233 353.619 10.3864 353.79 10.3208C353.962 10.2551 354.058 10.1661 354.058 10.0733V2.76696C354.058 2.67413 353.962 2.58511 353.79 2.51947C353.619 2.45384 353.387 2.41696 353.145 2.41696C352.903 2.41696 352.671 2.45384 352.5 2.51947C352.329 2.58511 352.233 2.67413 352.233 2.76696ZM348.449 3.92V9.366C348.449 9.45882 348.545 9.54785 348.716 9.61349C348.888 9.67912 349.12 9.716 349.362 9.716C349.604 9.716 349.836 9.67912 350.007 9.61349C350.178 9.54785 350.274 9.45882 350.274 9.366V3.92C350.274 3.82717 350.178 3.73815 350.007 3.67251C349.836 3.60687 349.604 3.57 349.362 3.57C349.12 3.57 348.888 3.60687 348.716 3.67251C348.545 3.73815 348.449 3.82717 348.449 3.92ZM341.794 8.53804C342.036 8.53804 342.269 8.50116 342.44 8.43553C342.611 8.36989 342.707 8.28087 342.707 8.18804V4.73088C342.707 4.63805 342.611 4.54903 342.44 4.48339C342.269 4.41775 342.036 4.38088 341.794 4.38088C341.552 4.38088 341.32 4.41775 341.149 4.48339C340.978 4.54903 340.882 4.63805 340.882 4.73088V8.18804C340.882 8.28087 340.978 8.36989 341.149 8.43553C341.32 8.50116 341.552 8.53804 341.794 8.53804ZM344.666 4.88796V8.34512C344.666 8.43794 344.762 8.52697 344.933 8.59261C345.104 8.65824 345.336 8.69512 345.578 8.69512C345.82 8.69512 346.052 8.65824 346.223 8.59261C346.394 8.52697 346.491 8.43794 346.491 8.34512V4.88796C346.491 4.79513 346.394 4.70611 346.223 4.64047C346.052 4.57483 345.82 4.53796 345.578 4.53796C345.336 4.53796 345.104 4.57483 344.933 4.64047C344.762 4.70611 344.666 4.79513 344.666 4.88796ZM356.929 4.382C356.687 4.382 356.455 4.41887 356.284 4.48451C356.112 4.55015 356.016 4.63917 356.016 4.732V8.18804C356.016 8.28087 356.112 8.36989 356.284 8.43553C356.455 8.50116 356.687 8.53804 356.929 8.53804C357.171 8.53804 357.403 8.50116 357.574 8.43553C357.745 8.36989 357.841 8.28087 357.841 8.18804V4.73088C357.841 4.63825 357.744 4.54951 357.573 4.48412C357.402 4.41872 357.17 4.382 356.929 4.382ZM310.612 0.35V12.726C310.612 12.8188 310.709 12.9078 310.88 12.9735C311.051 13.0391 311.283 13.076 311.525 13.076C311.767 13.076 311.999 13.0391 312.17 12.9735C312.341 12.9078 312.437 12.8188 312.437 12.726V0.35C312.437 0.257174 312.341 0.168151 312.17 0.102513C311.999 0.0368752 311.767 0 311.525 0C311.283 0 311.051 0.0368752 310.88 0.102513C310.709 0.168151 310.612 0.257174 310.612 0.35ZM303.958 2.41696C303.838 2.41692 303.719 2.42595 303.608 2.44353C303.498 2.4611 303.397 2.48688 303.312 2.51939C303.228 2.5519 303.16 2.5905 303.115 2.63298C303.069 2.67546 303.045 2.72099 303.045 2.76696V10.0733C303.045 10.1661 303.141 10.2551 303.313 10.3208C303.484 10.3864 303.716 10.4233 303.958 10.4233C304.2 10.4233 304.432 10.3864 304.603 10.3208C304.774 10.2551 304.87 10.1661 304.87 10.0733V2.76696C304.87 2.67413 304.774 2.58511 304.603 2.51947C304.432 2.45384 304.2 2.41696 303.958 2.41696ZM299.262 3.92V9.366C299.262 9.45882 299.358 9.54785 299.529 9.61349C299.7 9.67912 299.932 9.716 300.174 9.716C300.416 9.716 300.648 9.67912 300.819 9.61349C300.991 9.54785 301.087 9.45882 301.087 9.366V3.92C301.087 3.82717 300.991 3.73815 300.819 3.67251C300.648 3.60687 300.416 3.57 300.174 3.57C299.932 3.57 299.7 3.60687 299.529 3.67251C299.358 3.73815 299.262 3.82717 299.262 3.92Z" fill="#B4C0D0"/>
<path d="M396.589 0.00111992C396.347 0.00111992 396.115 0.0379951 395.944 0.103633C395.773 0.169271 395.676 0.258294 395.676 0.35112V12.726C395.676 12.8188 395.773 12.9079 395.944 12.9735C396.115 13.0391 396.347 13.076 396.589 13.076C396.831 13.076 397.063 13.0391 397.234 12.9735C397.405 12.9079 397.501 12.8188 397.501 12.726V0.35C397.501 0.257368 397.404 0.168632 397.233 0.103237C397.062 0.0378409 396.83 0.00111944 396.589 0.00111992ZM391.892 2.76696V10.0733C391.892 10.1661 391.988 10.2551 392.159 10.3208C392.331 10.3864 392.563 10.4233 392.805 10.4233C393.047 10.4233 393.279 10.3864 393.45 10.3208C393.621 10.2551 393.717 10.1661 393.717 10.0733V2.76696C393.717 2.67413 393.621 2.58511 393.45 2.51947C393.279 2.45384 393.047 2.41696 392.805 2.41696C392.563 2.41696 392.331 2.45384 392.159 2.51947C391.988 2.58511 391.892 2.67413 391.892 2.76696ZM388.109 3.92V9.366C388.109 9.45883 388.205 9.54785 388.377 9.61349C388.548 9.67913 388.78 9.716 389.022 9.716C389.264 9.716 389.496 9.67913 389.667 9.61349C389.838 9.54785 389.934 9.45883 389.934 9.366V3.92C389.934 3.82717 389.838 3.73815 389.667 3.67251C389.496 3.60688 389.264 3.57 389.022 3.57C388.78 3.57 388.548 3.60688 388.377 3.67251C388.205 3.73815 388.109 3.82717 388.109 3.92ZM380.542 4.73088V8.18804C380.542 8.28087 380.638 8.36989 380.809 8.43553C380.981 8.50116 381.213 8.53804 381.455 8.53804C381.697 8.53804 381.929 8.50116 382.1 8.43553C382.271 8.36989 382.367 8.28087 382.367 8.18804V4.73088C382.367 4.63805 382.271 4.54903 382.1 4.48339C381.929 4.41776 381.697 4.38088 381.455 4.38088C381.213 4.38088 380.981 4.41776 380.809 4.48339C380.638 4.54903 380.542 4.63805 380.542 4.73088ZM365.407 0.35V12.726C365.407 12.8188 365.503 12.9079 365.674 12.9735C365.845 13.0391 366.078 13.076 366.32 13.076C366.562 13.076 366.794 13.0391 366.965 12.9735C367.136 12.9079 367.232 12.8188 367.232 12.726V0.35C367.232 0.257174 367.136 0.168151 366.965 0.102513C366.794 0.0368752 366.562 0 366.32 0C366.078 0 365.845 0.0368752 365.674 0.102513C365.503 0.168151 365.407 0.257174 365.407 0.35ZM373.887 10.659C374.007 10.6591 374.125 10.65 374.236 10.6325C374.347 10.6149 374.447 10.5891 374.532 10.5566C374.617 10.5241 374.684 10.4855 374.73 10.443C374.776 10.4005 374.799 10.355 374.799 10.309V3.00272C374.799 2.90989 374.703 2.82087 374.532 2.75523C374.361 2.68959 374.129 2.65272 373.887 2.65272C373.645 2.65272 373.413 2.68959 373.241 2.75523C373.07 2.82087 372.974 2.90989 372.974 3.00272V10.309C372.974 10.4019 373.07 10.4909 373.241 10.5565C373.413 10.6222 373.645 10.659 373.887 10.659ZM377.67 3.35972C377.428 3.35972 377.196 3.3966 377.025 3.46223C376.854 3.52787 376.758 3.61689 376.758 3.70972V9.156C376.758 9.24883 376.854 9.33785 377.025 9.40349C377.196 9.46913 377.428 9.506 377.67 9.506C377.912 9.506 378.144 9.46913 378.316 9.40349C378.487 9.33785 378.583 9.24883 378.583 9.156V3.71C378.583 3.66401 378.559 3.61847 378.514 3.57597C378.468 3.53348 378.401 3.49486 378.316 3.46233C378.231 3.4298 378.13 3.404 378.02 3.38639C377.909 3.36878 377.79 3.35972 377.67 3.35972ZM385.237 8.694C385.479 8.694 385.712 8.65713 385.883 8.59149C386.054 8.52585 386.15 8.43683 386.15 8.344V4.88796C386.15 4.79513 386.054 4.70611 385.883 4.64047C385.712 4.57484 385.479 4.53796 385.237 4.53796C384.995 4.53796 384.763 4.57484 384.592 4.64047C384.421 4.70611 384.325 4.79513 384.325 4.88796V8.34512C384.326 8.43775 384.422 8.52649 384.593 8.59188C384.764 8.65728 384.996 8.694 385.237 8.694ZM410.811 2.76696V10.0733C410.811 10.1661 410.907 10.2551 411.078 10.3208C411.249 10.3864 411.481 10.4233 411.723 10.4233C411.965 10.4233 412.197 10.3864 412.369 10.3208C412.54 10.2551 412.636 10.1661 412.636 10.0733V2.76696C412.636 2.67413 412.54 2.58511 412.369 2.51947C412.197 2.45384 411.965 2.41696 411.723 2.41696C411.481 2.41696 411.249 2.45384 411.078 2.51947C410.907 2.58511 410.811 2.67413 410.811 2.76696ZM407.027 3.92V9.366C407.027 9.45883 407.123 9.54785 407.295 9.61349C407.466 9.67913 407.698 9.716 407.94 9.716C408.182 9.716 408.414 9.67913 408.585 9.61349C408.756 9.54785 408.852 9.45883 408.852 9.366V3.92C408.852 3.82717 408.756 3.73815 408.585 3.67251C408.414 3.60688 408.182 3.57 407.94 3.57C407.698 3.57 407.466 3.60688 407.295 3.67251C407.123 3.73815 407.027 3.82717 407.027 3.92ZM400.373 8.53804C400.615 8.53804 400.847 8.50116 401.018 8.43553C401.189 8.36989 401.285 8.28087 401.285 8.18804V4.73088C401.285 4.63805 401.189 4.54903 401.018 4.48339C400.847 4.41776 400.615 4.38088 400.373 4.38088C400.131 4.38088 399.898 4.41776 399.727 4.48339C399.556 4.54903 399.46 4.63805 399.46 4.73088V8.18804C399.46 8.28087 399.556 8.36989 399.727 8.43553C399.898 8.50116 400.131 8.53804 400.373 8.53804ZM403.244 4.88796V8.34512C403.244 8.43795 403.34 8.52697 403.511 8.59261C403.682 8.65825 403.914 8.69512 404.156 8.69512C404.398 8.69512 404.63 8.65825 404.801 8.59261C404.973 8.52697 405.069 8.43795 405.069 8.34512V4.88796C405.069 4.79513 404.973 4.70611 404.801 4.64047C404.63 4.57484 404.398 4.53796 404.156 4.53796C403.914 4.53796 403.682 4.57484 403.511 4.64047C403.34 4.70611 403.244 4.79513 403.244 4.88796ZM415.507 4.382C415.265 4.382 415.033 4.41887 414.862 4.48451C414.691 4.55015 414.594 4.63917 414.594 4.732V8.18804C414.594 8.28087 414.691 8.36989 414.862 8.43553C415.033 8.50116 415.265 8.53804 415.507 8.53804C415.749 8.53804 415.981 8.50116 416.152 8.43553C416.323 8.36989 416.419 8.28087 416.419 8.18804V4.73088C416.419 4.63825 416.322 4.54951 416.151 4.48412C415.98 4.41872 415.748 4.382 415.507 4.382ZM369.191 0.35V12.726C369.191 12.8188 369.287 12.9079 369.458 12.9735C369.629 13.0391 369.861 13.076 370.103 13.076C370.345 13.076 370.577 13.0391 370.748 12.9735C370.919 12.9079 371.016 12.8188 371.016 12.726V0.35C371.016 0.257174 370.919 0.168151 370.748 0.102513C370.577 0.0368752 370.345 0 370.103 0C369.861 0 369.629 0.0368752 369.458 0.102513C369.287 0.168151 369.191 0.257174 369.191 0.35ZM362.536 2.41696C362.416 2.41692 362.297 2.42595 362.187 2.44353C362.076 2.4611 361.975 2.48688 361.89 2.51939C361.806 2.5519 361.739 2.5905 361.693 2.63298C361.647 2.67546 361.623 2.72099 361.623 2.76696V10.0733C361.623 10.1661 361.72 10.2551 361.891 10.3208C362.062 10.3864 362.294 10.4233 362.536 10.4233C362.778 10.4233 363.01 10.3864 363.181 10.3208C363.352 10.2551 363.448 10.1661 363.448 10.0733V2.76696C363.448 2.67413 363.352 2.58511 363.181 2.51947C363.01 2.45384 362.778 2.41696 362.536 2.41696ZM357.84 3.92V9.366C357.84 9.45883 357.936 9.54785 358.107 9.61349C358.278 9.67913 358.51 9.716 358.752 9.716C358.994 9.716 359.226 9.67913 359.398 9.61349C359.569 9.54785 359.665 9.45883 359.665 9.366V3.92C359.665 3.82717 359.569 3.73815 359.398 3.67251C359.226 3.60688 358.994 3.57 358.752 3.57C358.51 3.57 358.278 3.60688 358.107 3.67251C357.936 3.73815 357.84 3.82717 357.84 3.92Z" fill="#B4C0D0"/>
<path d="M457.169 0.00111992C456.927 0.00111992 456.695 0.0379951 456.524 0.103633C456.353 0.169271 456.257 0.258294 456.257 0.35112V12.726C456.257 12.8188 456.353 12.9078 456.524 12.9735C456.695 13.0391 456.927 13.076 457.169 13.076C457.411 13.076 457.643 13.0391 457.814 12.9735C457.985 12.9078 458.082 12.8188 458.082 12.726V0.35C458.081 0.257368 457.984 0.168632 457.813 0.103237C457.642 0.0378408 457.411 0.00111944 457.169 0.00111992ZM452.472 2.76696V10.0733C452.472 10.1661 452.568 10.2551 452.739 10.3208C452.911 10.3864 453.143 10.4233 453.385 10.4233C453.627 10.4233 453.859 10.3864 454.03 10.3208C454.201 10.2551 454.297 10.1661 454.297 10.0733V2.76696C454.297 2.67413 454.201 2.58511 454.03 2.51947C453.859 2.45384 453.627 2.41696 453.385 2.41696C453.143 2.41696 452.911 2.45384 452.739 2.51947C452.568 2.58511 452.472 2.67413 452.472 2.76696ZM448.689 3.92V9.366C448.689 9.45882 448.786 9.54785 448.957 9.61349C449.128 9.67912 449.36 9.716 449.602 9.716C449.844 9.716 450.076 9.67912 450.247 9.61349C450.418 9.54785 450.514 9.45882 450.514 9.366V3.92C450.514 3.82717 450.418 3.73815 450.247 3.67251C450.076 3.60687 449.844 3.57 449.602 3.57C449.36 3.57 449.128 3.60687 448.957 3.67251C448.786 3.73815 448.689 3.82717 448.689 3.92ZM441.122 4.73088V8.18804C441.122 8.28087 441.218 8.36989 441.389 8.43553C441.561 8.50116 441.793 8.53804 442.035 8.53804C442.277 8.53804 442.509 8.50116 442.68 8.43553C442.851 8.36989 442.947 8.28087 442.947 8.18804V4.73088C442.947 4.63805 442.851 4.54903 442.68 4.48339C442.509 4.41775 442.277 4.38088 442.035 4.38088C441.793 4.38088 441.561 4.41775 441.389 4.48339C441.218 4.54903 441.122 4.63805 441.122 4.73088ZM425.987 0.35V12.726C425.987 12.8188 426.083 12.9078 426.254 12.9735C426.425 13.0391 426.658 13.076 426.9 13.076C427.142 13.076 427.374 13.0391 427.545 12.9735C427.716 12.9078 427.812 12.8188 427.812 12.726V0.35C427.812 0.257174 427.716 0.168151 427.545 0.102513C427.374 0.0368752 427.142 0 426.9 0C426.658 0 426.425 0.0368752 426.254 0.102513C426.083 0.168151 425.987 0.257174 425.987 0.35ZM434.467 10.659C434.587 10.6591 434.705 10.65 434.816 10.6325C434.927 10.6149 435.027 10.5891 435.112 10.5566C435.197 10.5241 435.264 10.4855 435.31 10.443C435.356 10.4005 435.379 10.355 435.379 10.309V3.00272C435.379 2.90989 435.283 2.82087 435.112 2.75523C434.941 2.68959 434.709 2.65272 434.467 2.65272C434.225 2.65272 433.993 2.68959 433.822 2.75523C433.65 2.82087 433.554 2.90989 433.554 3.00272V10.309C433.554 10.4019 433.65 10.4909 433.822 10.5565C433.993 10.6222 434.225 10.659 434.467 10.659ZM438.25 3.35972C438.008 3.35972 437.776 3.3966 437.605 3.46223C437.434 3.52787 437.338 3.61689 437.338 3.70972V9.156C437.338 9.24882 437.434 9.33785 437.605 9.40349C437.776 9.46912 438.008 9.506 438.25 9.506C438.492 9.506 438.724 9.46912 438.896 9.40349C439.067 9.33785 439.163 9.24882 439.163 9.156V3.71C439.163 3.66401 439.139 3.61847 439.094 3.57597C439.048 3.53348 438.981 3.49486 438.896 3.46233C438.811 3.4298 438.71 3.404 438.6 3.38639C438.489 3.36878 438.37 3.35972 438.25 3.35972ZM445.818 8.694C446.06 8.694 446.292 8.65712 446.463 8.59149C446.634 8.52585 446.73 8.43682 446.73 8.344V4.88796C446.73 4.79513 446.634 4.70611 446.463 4.64047C446.292 4.57483 446.06 4.53796 445.818 4.53796C445.576 4.53796 445.343 4.57483 445.172 4.64047C445.001 4.70611 444.905 4.79513 444.905 4.88796V8.34512C444.906 8.43775 445.002 8.52649 445.173 8.59188C445.344 8.65728 445.576 8.694 445.818 8.694ZM471.391 2.76696V10.0733C471.391 10.1661 471.487 10.2551 471.658 10.3208C471.829 10.3864 472.061 10.4233 472.303 10.4233C472.545 10.4233 472.778 10.3864 472.949 10.3208C473.12 10.2551 473.216 10.1661 473.216 10.0733V2.76696C473.216 2.67413 473.12 2.58511 472.949 2.51947C472.778 2.45384 472.545 2.41696 472.303 2.41696C472.061 2.41696 471.829 2.45384 471.658 2.51947C471.487 2.58511 471.391 2.67413 471.391 2.76696ZM467.607 3.92V9.366C467.607 9.45882 467.703 9.54785 467.875 9.61349C468.046 9.67912 468.278 9.716 468.52 9.716C468.762 9.716 468.994 9.67912 469.165 9.61349C469.336 9.54785 469.432 9.45882 469.432 9.366V3.92C469.432 3.82717 469.336 3.73815 469.165 3.67251C468.994 3.60687 468.762 3.57 468.52 3.57C468.278 3.57 468.046 3.60687 467.875 3.67251C467.703 3.73815 467.607 3.82717 467.607 3.92ZM460.953 8.53804C461.195 8.53804 461.427 8.50116 461.598 8.43553C461.769 8.36989 461.865 8.28087 461.865 8.18804V4.73088C461.865 4.63805 461.769 4.54903 461.598 4.48339C461.427 4.41775 461.195 4.38088 460.953 4.38088C460.711 4.38088 460.479 4.41775 460.307 4.48339C460.136 4.54903 460.04 4.63805 460.04 4.73088V8.18804C460.04 8.28087 460.136 8.36989 460.307 8.43553C460.479 8.50116 460.711 8.53804 460.953 8.53804ZM463.824 4.88796V8.34512C463.824 8.43794 463.92 8.52697 464.091 8.59261C464.262 8.65824 464.494 8.69512 464.736 8.69512C464.978 8.69512 465.21 8.65824 465.381 8.59261C465.553 8.52697 465.649 8.43794 465.649 8.34512V4.88796C465.649 4.79513 465.553 4.70611 465.381 4.64047C465.21 4.57483 464.978 4.53796 464.736 4.53796C464.494 4.53796 464.262 4.57483 464.091 4.64047C463.92 4.70611 463.824 4.79513 463.824 4.88796ZM476.087 4.382C475.845 4.382 475.613 4.41887 475.442 4.48451C475.271 4.55015 475.175 4.63917 475.175 4.732V8.18804C475.175 8.28087 475.271 8.36989 475.442 8.43553C475.613 8.50116 475.845 8.53804 476.087 8.53804C476.329 8.53804 476.561 8.50116 476.732 8.43553C476.903 8.36989 477 8.28087 477 8.18804V4.73088C476.999 4.63825 476.902 4.54951 476.731 4.48412C476.56 4.41872 476.329 4.382 476.087 4.382ZM429.771 0.35V12.726C429.771 12.8188 429.867 12.9078 430.038 12.9735C430.209 13.0391 430.441 13.076 430.683 13.076C430.925 13.076 431.157 13.0391 431.328 12.9735C431.5 12.9078 431.596 12.8188 431.596 12.726V0.35C431.596 0.257174 431.5 0.168151 431.328 0.102513C431.157 0.0368752 430.925 0 430.683 0C430.441 0 430.209 0.0368752 430.038 0.102513C429.867 0.168151 429.771 0.257174 429.771 0.35ZM423.116 2.41696C422.996 2.41692 422.877 2.42595 422.767 2.44353C422.656 2.4611 422.555 2.48688 422.471 2.51939C422.386 2.5519 422.319 2.5905 422.273 2.63298C422.227 2.67546 422.203 2.72099 422.204 2.76696V10.0733C422.204 10.1661 422.3 10.2551 422.471 10.3208C422.642 10.3864 422.874 10.4233 423.116 10.4233C423.358 10.4233 423.59 10.3864 423.761 10.3208C423.932 10.2551 424.029 10.1661 424.029 10.0733V2.76696C424.029 2.67413 423.932 2.58511 423.761 2.51947C423.59 2.45384 423.358 2.41696 423.116 2.41696ZM418.42 3.92V9.366C418.42 9.45882 418.516 9.54785 418.687 9.61349C418.858 9.67912 419.09 9.716 419.332 9.716C419.574 9.716 419.807 9.67912 419.978 9.61349C420.149 9.54785 420.245 9.45882 420.245 9.366V3.92C420.245 3.82717 420.149 3.73815 419.978 3.67251C419.807 3.60687 419.574 3.57 419.332 3.57C419.09 3.57 418.858 3.60687 418.687 3.67251C418.516 3.73815 418.42 3.82717 418.42 3.92Z" fill="#B4C0D0"/>
</svg>
