
<svg width="118" height="118" viewBox="0 0 118 118" fill="none" xmlns="http://www.w3.org/2000/svg">
<path fill-rule="evenodd" clip-rule="evenodd" d="M82.332 8.84711L85.0097 6.18342C92.4039 -1.17214 104.392 -1.17214 111.786 6.18342C119.181 13.539 119.181 25.4647 111.786 32.8203L87.6874 56.7934C84.7297 59.7356 79.9344 59.7356 76.9767 56.7934L52.8777 32.8203C45.4835 25.4647 45.4835 13.539 52.8777 6.18342C60.2718 -1.17214 72.2602 -1.17214 79.6544 6.18342L82.332 8.84711ZM0.666016 47.3334H12.3327L48.8625 63.3152C54.4732 65.7699 57.0532 72.291 54.6408 77.92C54.2746 78.7744 53.8144 79.5596 53.2773 80.2686L69.1093 90.305C73.9692 92.735 79.3282 94.0001 84.7617 94.0001H93.9994C100.443 94.0001 105.666 99.2234 105.666 105.667C105.666 112.11 100.443 117.333 93.9994 117.333H46.6825C39.4378 117.333 32.2925 115.647 25.8126 112.407L0.666016 99.8334V47.3334Z" fill="#28303F" fill-opacity="0.08"/>
</svg>