<svg width="215" height="108" viewBox="0 0 215 108" fill="none" xmlns="http://www.w3.org/2000/svg">
<path d="M206.999 107.341C211.417 107.341 215.03 103.755 214.701 99.3487C213.853 87.989 211.201 76.8192 206.828 66.2636C201.434 53.2404 193.527 41.4071 183.56 31.4396C173.592 21.472 161.759 13.5653 148.736 8.17087C138.18 3.79861 127.01 1.14617 115.65 0.297974C111.244 -0.0310105 107.658 3.58172 107.658 8L107.658 31.2673C107.658 35.6856 111.252 39.2188 115.639 39.7369C121.838 40.4687 127.919 42.051 133.709 44.4492C141.968 47.8702 149.472 52.8845 155.793 59.2058C162.115 65.527 167.129 73.0314 170.55 81.2906C172.948 87.0803 174.53 93.1613 175.262 99.3597C175.78 103.748 179.314 107.341 183.732 107.341H206.999Z" fill="white"/>
<path d="M8.00084 107.655C3.58255 107.655 -0.0301971 104.068 0.298706 99.6617C2.0274 76.5033 11.2321 54.4476 26.6387 36.8798C43.8093 17.3004 67.5122 4.63095 93.3314 1.2318C119.15 -2.16735 145.325 3.93565 166.978 18.4038C186.406 31.3855 201.006 50.3073 208.67 72.2291C210.128 76.3999 207.566 80.7999 203.299 81.9434L181.055 87.9037C176.787 89.0472 172.444 86.4901 170.809 82.3852C165.716 69.5925 156.847 58.5737 145.295 50.8549C131.515 41.6473 114.857 37.7633 98.4256 39.9266C81.9942 42.0898 66.9095 50.1527 55.982 62.6131C46.8213 73.0589 41.106 85.9978 39.4973 99.6728C38.9811 104.061 35.4478 107.655 31.0295 107.655H8.00084Z" fill="#DAFF98"/>
</svg>
