
<svg width="118" height="106" viewBox="0 0 118 106" fill="none" xmlns="http://www.w3.org/2000/svg">
<path fill-rule="evenodd" clip-rule="evenodd" d="M58.9993 15.2246L63.4621 10.43C75.7858 -2.81 95.7663 -2.81 108.09 10.43C120.414 23.67 120.414 45.1363 108.09 58.3763L67.9249 101.528C62.9955 106.824 55.0032 106.824 50.0738 101.528L9.90874 58.3763C-2.4149 45.1363 -2.41489 23.67 9.90874 10.43C22.2324 -2.81001 42.2129 -2.81 54.5366 10.43L58.9993 15.2246ZM88.166 13.625C85.7498 13.625 83.791 15.5838 83.791 18C83.791 20.4162 85.7498 22.375 88.166 22.375C92.1931 22.375 95.4577 25.6396 95.4577 29.6667C95.4577 32.0829 97.4164 34.0417 99.8327 34.0417C102.249 34.0417 104.208 32.0829 104.208 29.6667C104.208 20.8071 97.0256 13.625 88.166 13.625Z" fill="#28303F" fill-opacity="0.08"/>
</svg>
