
<svg width="106" height="106" viewBox="0 0 106 106" fill="none" xmlns="http://www.w3.org/2000/svg">
<path fill-rule="evenodd" clip-rule="evenodd" d="M78.4531 78.0063L95.0495 61.4099C108.984 47.4759 108.984 24.8845 95.0495 10.9505C81.1155 -2.9835 58.5241 -2.9835 44.5901 10.9505L27.9942 27.5464C28.2596 27.4499 28.5685 27.5081 28.7814 27.7209L78.2789 77.2184C78.4919 77.4314 78.55 77.7408 78.4531 78.0063ZM78.0062 78.4533C77.7406 78.5502 77.4313 78.4921 77.2182 78.279L27.7207 28.7816C27.5079 28.5687 27.4497 28.2597 27.5462 27.9944L10.9505 44.5901C-2.9835 58.5241 -2.9835 81.1155 10.9505 95.0495C24.8845 108.984 47.4759 108.984 61.4099 95.0495L78.0062 78.4533ZM81.343 23.596C81.6359 23.3031 82.1107 23.3031 82.4036 23.596C89.5307 30.7231 89.5307 42.2784 82.4036 49.4054C82.1107 49.6983 81.6359 49.6983 81.343 49.4054C81.0501 49.1125 81.0501 48.6377 81.343 48.3448C87.8842 41.8035 87.8842 31.198 81.343 24.6567C81.0501 24.3638 81.0501 23.8889 81.343 23.596Z" fill="#28303F" fill-opacity="0.08"/>
</svg>
