
<svg width="140" height="140" viewBox="0 0 140 140" fill="none" xmlns="http://www.w3.org/2000/svg">
<path fill-rule="evenodd" clip-rule="evenodd" d="M62.7077 11.6666C62.7077 9.25038 60.7489 7.29163 58.3327 7.29163C55.9164 7.29163 53.9577 9.25038 53.9577 11.6666V23.3333C53.9577 25.7495 55.9164 27.7083 58.3327 27.7083C60.7489 27.7083 62.7077 25.7495 62.7077 23.3333V23.3328C64.4787 24.6631 65.6243 26.7811 65.6243 29.1666V46.6666C65.6243 60.3587 54.5247 71.4583 40.8327 71.4583C27.1406 71.4583 16.041 60.3587 16.041 46.6666V29.1666C16.041 26.7811 17.1866 24.6631 18.9577 23.3328V23.3333C18.9577 25.7496 20.9164 27.7083 23.3327 27.7083C25.7489 27.7083 27.7077 25.7496 27.7077 23.3333V11.6667C27.7077 9.25042 25.7489 7.29167 23.3327 7.29167C20.9164 7.29167 18.9577 9.25042 18.9577 11.6667V13.7288C12.2245 15.6332 7.29102 21.8238 7.29102 29.1666V46.6666C7.29102 63.7084 20.0003 77.7818 36.4577 79.9256V106.458C36.4577 120.956 48.2102 132.708 62.7077 132.708C77.2052 132.708 88.9577 120.956 88.9577 106.458V74.375C88.9577 67.9316 94.181 62.7083 100.624 62.7083C107.068 62.7083 112.291 67.9316 112.291 74.375V81.6666C112.291 81.946 112.317 82.2193 112.367 82.4842C108.051 84.1957 104.999 88.4081 104.999 93.3333C104.999 99.7767 110.223 105 116.666 105C123.109 105 128.333 99.7767 128.333 93.3333C128.333 88.4081 125.281 84.1957 120.965 82.4842C121.015 82.2193 121.041 81.946 121.041 81.6666V74.375C121.041 63.0991 111.9 53.9583 100.624 53.9583C89.3485 53.9583 80.2077 63.0991 80.2077 74.375V106.458C80.2077 116.123 72.3727 123.958 62.7077 123.958C53.0427 123.958 45.2077 116.123 45.2077 106.458V79.9256C61.6651 77.7818 74.3744 63.7084 74.3744 46.6666V29.1666C74.3744 21.8238 69.4408 15.6332 62.7077 13.7288V11.6666Z" fill="#1F2933" fill-opacity="0.06"/>
</svg>
